<svg id="Capa_1" enable-background="new 0 0 512 512" height="512" viewBox="0 0 512 512" width="512" xmlns="http://www.w3.org/2000/svg"><g><path d="m103.29 0h98.688v87.143h-98.688z" fill="#455da0"/><path d="m475.43 109.71v402.29h-438.86v-413.05l25.81-25.81h193.62l.02-.04 27.6-58.1h146.74z" fill="#abe233"/><path d="m475.43 109.71v402.29h-219.41v-438.9l27.6-58.1h146.74z" fill="#56c125"/><path d="m118.29 152.71h275.42v275.43h-275.42z" fill="#fff"/><path d="m256.02 152.71h137.69v275.43h-137.69z" fill="#c0defe"/><path d="m320.13 233.25v81.24c0 32.81-20.28 60.26-50.27 67.18-4.41 1.02-9.04 1.59-13.84 1.66-.39.02-.78.02-1.17.02-5.39 0-10.62-.63-15.61-1.82-30.17-7.17-51.46-34.76-46.71-67.04 6.89-46.9 35.25-71.86 63.49-85.15 13.01-6.13 26-9.77 36.85-11.94z" fill="#abe233"/><path d="m320.13 233.25v81.24c0 32.81-20.28 60.26-50.27 67.18-4.41 1.02-9.04 1.59-13.84 1.66v-153.99c13.01-6.13 26-9.77 36.85-11.94z" fill="#56c125"/><path d="m313.558 78.857h70.65v30h-70.65z" fill="#03995a"/><path d="m408.71 158.94 22.12-22.11-21.22-21.22-22.1 22.1h-263l-22.1-22.1-21.21 21.22 22.09 22.09v263.02l-22.09 22.09 21.21 21.21 22.1-22.1h138.18c.03.07.07.13.11.19l.3-.19h124.41l22.1 22.1 21.22-21.21-22.12-22.11zm-30 254.2h-98.13c-4.73-10.07-8.32-20.62-10.72-31.47-2.37-10.69-3.58-21.67-3.58-32.75 0-44.63 19.94-87.08 53.85-115.67 0-11.47 0-19.03 0-19.03s-11.32 0-27.26 3.18c-14.56 13.81-26.84 30.01-36.1 47.75-.25.49-.51.97-.75 1.46-12.93 25.31-19.74 53.72-19.74 82.31 0 11 1 21.91 2.96 32.61 1.97 10.79 4.92 21.37 8.8 31.61h-114.75v-245.43h245.42z" fill="#56c125"/><path d="m408.71 421.92 22.12 22.11-21.22 21.21-22.1-22.1h-124.41l-.3.19c-.04-.06-.08-.12-.11-.19h-6.67v-176.53c.24-.49.5-.97.75-1.46 9.26-17.74 21.54-33.94 36.1-47.75 15.94-3.18 27.26-3.18 27.26-3.18s0 7.56 0 19.03c-33.91 28.59-53.85 71.04-53.85 115.67 0 11.08 1.21 22.06 3.58 32.75 2.4 10.85 5.99 21.4 10.72 31.47h98.13v-245.43h-122.69v-30h131.49l22.1-22.1 21.22 21.22-22.12 22.11z" fill="#03995a"/></g></svg>