<svg height="512" viewBox="0 0 64 64" width="512" xmlns="http://www.w3.org/2000/svg"><g id="Fill_Outline" data-name="Fill Outline"><g id="Color"><g><path d="m27 15h34v46h-34z" fill="#d0d8da"/><path d="m56 53a22 22 0 0 1 -22-22v-16h-7v46h34v-8z" fill="#93999a"/><path d="m14 23h-4l-.308.1a8.324 8.324 0 0 0 -5.692 7.9l6 3v8h4l3-10v-6a3 3 0 0 0 -3-3z" fill="#c4f236"/><path d="m12 36v-1.528a4 4 0 0 0 -2.211-3.578 6.846 6.846 0 0 1 -3.733-5.335 8.3 8.3 0 0 0 -2.056 5.441l6 3v8h4l.673-2.243a3.989 3.989 0 0 1 -2.673-3.757z" fill="#a1d51c"/><path d="m3 13v4h3a4 4 0 0 1 4 4v2h4v-2a8 8 0 0 0 -8-8z" fill="#d0d8da"/><path d="m12 20a5 5 0 0 0 -5-5h-4v2h3a4 4 0 0 1 4 4v2h4v-2h-1a1 1 0 0 1 -1-1z" fill="#93999a"/><path d="m31 19h26v10h-26z" fill="#aae1f9"/><path d="m31 19v10h26v-10zm24 8h-11a5 5 0 0 1 -5-5v-1h14a2 2 0 0 1 2 2z" fill="#57b7eb"/><path d="m47 37h8a0 0 0 0 1 0 0v2a10 10 0 0 1 -10 10h-10a0 0 0 0 1 0 0 12 12 0 0 1 12-12z" fill="#c4f236"/><path d="m50 46h-4a6 6 0 0 1 -6-6v-.733a11.971 11.971 0 0 0 -5 9.733h10a9.963 9.963 0 0 0 7.413-3.3 9.994 9.994 0 0 1 -2.413.3z" fill="#a1d51c"/><path d="m35 49h8.358a22.1 22.1 0 0 1 -6.27-6.761 11.943 11.943 0 0 0 -2.088 6.761z" fill="#7ab92d"/><path d="m31 19h3v10h-3z" fill="#4891d3"/></g></g><g id="Outline_copy" data-name="Outline copy"><g fill="#39519d"><path d="m58 29v-10a1 1 0 0 0 -1-1h-26a1 1 0 0 0 -1 1v5a1 1 0 0 0 2 0v-4h24v8h-25a1 1 0 0 0 0 2h26a1 1 0 0 0 1-1z"/><path d="m45 48h-5a1 1 0 0 0 0 2h5a11.013 11.013 0 0 0 11-11v-2a1 1 0 0 0 -1-1h-8a13.015 13.015 0 0 0 -13 13v.005a12.927 12.927 0 0 0 -1 4.995 1 1 0 0 0 2 0 11.013 11.013 0 0 1 11-11 1 1 0 0 0 0-2 12.955 12.955 0 0 0 -9.156 3.783 11.014 11.014 0 0 1 10.156-6.783h7v1a9.011 9.011 0 0 1 -9 9z"/><path d="m37 25v-2a1 1 0 0 0 -2 0v2a1 1 0 0 0 2 0z"/><path d="m41 25v-2a1 1 0 0 0 -2 0v2a1 1 0 0 0 2 0z"/><path d="m53 25v-2a1 1 0 0 0 -2 0v2a1 1 0 0 0 2 0z"/><path d="m61 51a1 1 0 0 0 1-1v-35a1 1 0 0 0 -1-1h-34a1 1 0 0 0 -1 1v11h-.5a4.505 4.505 0 0 0 -4.5 4.5v25.5a4 4 0 0 1 -8 0v-13h1a1 1 0 0 0 .958-.713l3-10a1 1 0 0 0 .042-.287v-1.8a1 1 0 0 0 -2 0v1.653l-2.744 9.147h-2.256v-7a1 1 0 0 0 -.553-.9l-5.422-2.706a7.317 7.317 0 0 1 4.983-6.343l.154-.051h3.838a2 2 0 0 1 2 2 1 1 0 0 0 2 0 4 4 0 0 0 -3-3.858v-1.142a9.011 9.011 0 0 0 -9-9h-3a1 1 0 0 0 -1 1v4a1 1 0 0 0 1 1h3a3 3 0 0 1 3 3v1.3a9.307 9.307 0 0 0 -6 8.7v3a7 7 0 0 0 6 6.92v1.08a1 1 0 0 0 1 1h1v13a6 6 0 0 0 12 0v-25.5a2.5 2.5 0 0 1 2.5-2.5h.5v33a1 1 0 0 0 1 1h34a1 1 0 0 0 1-1v-7a1 1 0 0 0 -2 0v6h-32v-44h32v34a1 1 0 0 0 1 1zm-55-35h-2v-2h2a7.008 7.008 0 0 1 7 7v1h-2v-1a5.006 5.006 0 0 0 -5-5zm-1 18v-1.382l4 2v4.282a5.008 5.008 0 0 1 -4-4.9z"/></g></g></g></svg>