<?xml version="1.0"?>
<svg xmlns="http://www.w3.org/2000/svg" id="filled_outline" data-name="filled outline" viewBox="0 0 512 512" width="512" height="512"><polygon points="104 264 88 288 56 272 48 232 57.272 216.828 113.022 249.565 104 264" style="fill:#d1e4ff"/><polygon points="277.812 174.7 192 312 104 264 96 232 108.511 211.007 152 240 152 256 184 272 232 192 218.688 138.753 277.812 174.7" style="fill:#8098ab"/><polygon points="136 88 128 64 152 48 280 48 296 88 280 104 288 160 272 184 184 136 104 264 48 232 136 88" style="fill:#b9cd2a"/><path d="M56,392V352.49806a32,32,0,0,1,4.21622-15.87644L88,288,56,272,32.43244,313.24323A64,64,0,0,0,24,344.99612V392a48,48,0,0,0,48,48H256a16,16,0,0,1,16,16v32h32V456a48,48,0,0,0-48-48H72A16,16,0,0,1,56,392Z" style="fill:#8098ab"/><polygon points="436 24 436 64 352 64 344.64 67.15 332.04 72.56 317.33 78.86 296 88 280 48 301.33 38.86 316.04 32.56 328.65 27.15 336 24 436 24" style="fill:#d1e4ff"/><circle cx="436" cy="44" r="20" style="fill:#b2c6eb"/><path d="M464,80V252.82083A91.17918,91.17918,0,0,1,372.82083,344h-.00018A84.82065,84.82065,0,0,1,288,259.17935v-.00015a84.82066,84.82066,0,0,1,65.39338-82.56588l.00014,0A154.86449,154.86449,0,0,0,456.43848,95.123Z" style="fill:#ffc431"/><path d="M328,240h24a24,24,0,0,1,24,24v16a0,0,0,0,1,0,0H352a24,24,0,0,1-24-24V240A0,0,0,0,1,328,240Z" style="fill:#ffe28f"/><path d="M400,224h24a0,0,0,0,1,0,0v16a24,24,0,0,1-24,24H376a0,0,0,0,1,0,0V248A24,24,0,0,1,400,224Z" style="fill:#ffd873"/><path d="M72,448H256a8.00917,8.00917,0,0,1,8,8v32a8.00008,8.00008,0,0,0,8,8h32a8.00008,8.00008,0,0,0,8-8V456a56.06322,56.06322,0,0,0-56-56H72a8.00917,8.00917,0,0,1-8-8v-39.502a24.03976,24.03976,0,0,1,3.16211-11.90723l27.65137-48.38916,11.78222-17.67322L188.169,319.023a7.99724,7.99724,0,0,0,10.61523-2.78272l79.94629-127.91406,15.92578-23.88867a8,8,0,0,0,1.26367-5.56885l-7.43457-52.04,12.083-12.08276L353.6416,72H436a28,28,0,0,0,0-56H336a8.003,8.003,0,0,0-3.15137.647L278.3584,40H152a7.99836,7.99836,0,0,0-4.4375,1.34375l-24,16a7.99989,7.99989,0,0,0-3.15234,9.186l6.82422,20.47167L41.17383,227.82861a7.98966,7.98966,0,0,0-1.0083,5.73822l-.01026.002,7.4126,37.06238-22.08154,38.6427A72.11624,72.11624,0,0,0,16,344.99609V392A56.06322,56.06322,0,0,0,72,448ZM59.2915,247.666l33.2981,19.0274L85.26074,277.686l-22.18359-11.0918ZM189.21191,301.3667,115.2832,261.04181,131.12354,235.697,144,244.28125V256a7.99967,7.99967,0,0,0,4.42188,7.15527l32,16a7.99729,7.99729,0,0,0,10.43847-3.03955l48-80a8.00265,8.00265,0,0,0,.90039-6.05615L235.5542,173.233l25.1626,13.72522ZM216.4585,162.81714,221.75415,184H208a32.03635,32.03635,0,0,0-32,32v43.056l-16-8.00037V240a7.99943,7.99943,0,0,0-3.5625-6.65625l-16.83057-11.22034,47.18116-75.49011ZM217.87085,200,192,243.11731V216a16.01833,16.01833,0,0,1,16-16ZM347.81641,32H410.707a27.95093,27.95093,0,0,0,0,24H357.416Zm-6.14356,27.72235-12.60693,5.40289L319.00977,39.98505l12.60693-5.4029ZM314.35547,71.42981l-13.97217,5.988L290.32715,52.27765l13.97217-5.988ZM448,44a12,12,0,1,1-12-12A12.01343,12.01343,0,0,1,448,44ZM142.82617,92.17139a8.002,8.002,0,0,0,.76367-6.70118l-6.06836-18.20312L154.42188,56H274.584l12.0293,30.07324-12.27051,12.27a8.00223,8.00223,0,0,0-2.26269,6.78809l7.56836,52.97412L269.4043,173.47168l-81.57325-44.49463a8.00106,8.00106,0,0,0-10.61523,2.78272L101.292,253.23828,59.12207,229.1416ZM32,344.99609a56.08742,56.08742,0,0,1,7.37891-27.78369L59.19141,282.54l17.667,8.8335L53.26953,332.65283A40.06694,40.06694,0,0,0,48,352.49805V392a24.02718,24.02718,0,0,0,24,24H256a40.04552,40.04552,0,0,1,40,40v24H280V456a24.02718,24.02718,0,0,0-24-24H72a40.04552,40.04552,0,0,1-40-40Z"/><path d="M456.84473,76.42236,449.2832,91.54541a146.47422,146.47422,0,0,1-97.72168,77.28076A92.82057,92.82057,0,0,0,372.82129,352,99.29123,99.29123,0,0,0,472,252.8208V80a7.99986,7.99986,0,0,0-15.15527-3.57764ZM368,272H352a16.01833,16.01833,0,0,1-16-16v-8h16a16.01833,16.01833,0,0,1,16,16Zm88-19.1792a83.28933,83.28933,0,0,1-72,82.40649V272h16a32.03635,32.03635,0,0,0,32-32V224a8.00008,8.00008,0,0,0-8-8H400a32.05081,32.05081,0,0,0-30.19629,21.42438A31.81282,31.81282,0,0,0,352,232H328a8.00008,8.00008,0,0,0-8,8v16a32.03635,32.03635,0,0,0,32,32h16v47.83325a76.812,76.812,0,0,1-12.77441-151.43286A162.37491,162.37491,0,0,0,456,112.249ZM384,256v-8a16.01833,16.01833,0,0,1,16-16h16v8a16.01833,16.01833,0,0,1-16,16Z"/></svg>
