<?xml version="1.0" encoding="iso-8859-1"?>
<!-- Generator: Adobe Illustrator 19.0.0, SVG Export Plug-In . SVG Version: 6.00 Build 0)  -->
<svg version="1.1" id="Capa_1" xmlns="http://www.w3.org/2000/svg" xmlns:xlink="http://www.w3.org/1999/xlink" x="0px" y="0px"
	 viewBox="0 0 436.907 436.907" style="enable-background:new 0 0 436.907 436.907;" xml:space="preserve">
<rect x="61.44" y="170.667" style="fill:#FFE600;" width="27.307" height="150.187"/>
<path style="fill:#602F75;" d="M88.747,327.68H61.44c-3.772,0-6.827-3.058-6.827-6.827V170.667c0-3.768,3.055-6.827,6.827-6.827
	h27.307c3.772,0,6.827,3.058,6.827,6.827v150.187C95.573,324.622,92.518,327.68,88.747,327.68z M68.267,314.027H81.92V177.493
	H68.267V314.027z"/>
<path style="fill:#00E7FF;" d="M109.227,348.16c0-18.852-15.281-34.133-34.133-34.133S40.96,329.308,40.96,348.16H109.227z"/>
<path style="fill:#602F75;" d="M109.227,354.987H40.96c-3.772,0-6.827-3.058-6.827-6.827c0-22.586,18.374-40.96,40.96-40.96
	s40.96,18.374,40.96,40.96C116.053,351.928,112.998,354.987,109.227,354.987z M48.654,341.333h52.879
	c-3.034-11.762-13.739-20.48-26.44-20.48S51.688,329.571,48.654,341.333z"/>
<polyline style="fill:#FFE600;" points="348.16,170.667 375.467,170.667 375.467,320.853 348.16,320.853 348.16,210.773 "/>
<path style="fill:#602F75;" d="M375.467,327.68H348.16c-3.772,0-6.827-3.058-6.827-6.827v-110.08c0-3.768,3.055-6.827,6.827-6.827
	c3.772,0,6.827,3.058,6.827,6.827v103.253h13.653V177.493h-20.48c-3.772,0-6.827-3.058-6.827-6.827s3.055-6.827,6.827-6.827h27.307
	c3.772,0,6.827,3.058,6.827,6.827v150.187C382.293,324.622,379.238,327.68,375.467,327.68z"/>
<path style="fill:#00E7FF;" d="M395.947,348.16c0-18.852-15.281-34.133-34.133-34.133c-18.852,0-34.133,15.281-34.133,34.133
	H395.947z"/>
<path style="fill:#602F75;" d="M395.947,354.987H327.68c-3.772,0-6.827-3.058-6.827-6.827c0-22.586,18.374-40.96,40.96-40.96
	c22.586,0,40.96,18.374,40.96,40.96C402.773,351.928,399.718,354.987,395.947,354.987z M335.374,341.333h52.879
	c-3.034-11.762-13.739-20.48-26.44-20.48S338.408,329.571,335.374,341.333z"/>
<path style="fill:#FFFFFF;" d="M375.467,170.667c0-45.244-70.298-81.92-157.013-81.92S61.44,125.423,61.44,170.667H375.467z"/>
<g>
	<path style="fill:#EA3457;" d="M375.467,177.493H61.44c-3.772,0-6.827-3.058-6.827-6.827c0-49.763,71.967-88.747,163.84-88.747
		s163.84,38.984,163.84,88.747C382.293,174.435,379.238,177.493,375.467,177.493z M68.912,163.84h299.08
		c-7.158-37.649-72.724-68.267-149.538-68.267S76.073,126.191,68.912,163.84z"/>
	<path style="fill:#EA3457;" d="M382.293,177.493H54.613v-6.827c0-49.763,71.967-88.747,163.84-88.747s163.84,38.984,163.84,88.747
		V177.493z M68.912,163.84h299.08c-7.158-37.649-72.724-68.267-149.538-68.267S76.073,126.191,68.912,163.84z"/>
	<rect x="109.227" y="109.227" style="fill:#EA3457;" width="13.653" height="61.918"/>
	<rect x="150.187" y="95.573" style="fill:#EA3457;" width="13.653" height="75.571"/>
	<rect x="191.147" y="88.747" style="fill:#EA3457;" width="13.653" height="82.398"/>
	<rect x="232.107" y="88.747" style="fill:#EA3457;" width="13.653" height="82.398"/>
	<rect x="273.067" y="95.573" style="fill:#EA3457;" width="13.653" height="75.571"/>
	<rect x="314.027" y="109.227" style="fill:#EA3457;" width="13.653" height="61.918"/>
</g>
<path style="fill:#FFFFFF;" d="M61.44,170.667c0-30.164-24.45-54.613-54.613-54.613v55.17L61.44,170.667z"/>
<path style="fill:#EA3457;" d="M6.827,178.05c-1.799,0-3.526-0.71-4.799-1.973C0.727,174.793,0,173.046,0,171.223v-55.17
	c0-3.768,3.055-6.827,6.827-6.827c33.881,0,61.44,27.563,61.44,61.44c0,3.744-3.014,6.786-6.758,6.827L6.895,178.05
	C6.874,178.05,6.847,178.05,6.827,178.05z M61.44,170.667h0.068H61.44z M13.653,123.368v40.96l40.486-0.413
	C51.166,142.985,34.574,126.372,13.653,123.368z"/>
<path style="fill:#FFFFFF;" d="M375.467,170.667c0-30.164,24.45-54.613,54.613-54.613v55.17L375.467,170.667z"/>
<path style="fill:#EA3457;" d="M430.08,178.05c-0.02,0-0.048,0-0.068,0l-54.613-0.556c-3.748-0.041-6.758-3.082-6.758-6.827
	c0-33.877,27.559-61.44,61.44-61.44c3.772,0,6.827,3.058,6.827,6.827v55.17c0,1.823-0.727,3.57-2.027,4.854
	C433.606,177.34,431.879,178.05,430.08,178.05z M382.768,163.912l40.486,0.416v-40.96
	C402.333,126.372,385.741,142.985,382.768,163.912z"/>
<g>
</g>
<g>
</g>
<g>
</g>
<g>
</g>
<g>
</g>
<g>
</g>
<g>
</g>
<g>
</g>
<g>
</g>
<g>
</g>
<g>
</g>
<g>
</g>
<g>
</g>
<g>
</g>
<g>
</g>
</svg>
