<svg id="Capa_1" enable-background="new 0 0 512 512" height="512" viewBox="0 0 512 512" width="512" xmlns="http://www.w3.org/2000/svg"><path d="m192 135v88c0-35.346 28.654-64 64-64s64 28.654 64 64v-88z" fill="#dce1e7"/><path d="m192 231v-8c0-35.346 28.654-64 64-64s64 28.654 64 64v8" fill="#fff"/><path d="m192 231v88c0-35.346 28.654-64 64-64s64 28.654 64 64v-88z" fill="#dce1e7"/><path d="m208 231h-16v88c0-16.225 6.049-31.029 16-42.31z" fill="#b9c2cf"/><path d="m192 327v-8c0-35.346 28.654-64 64-64s64 28.654 64 64v8" fill="#fff"/><path d="m192 39v88c0-35.346 28.654-64 64-64s64 28.654 64 64v-88z" fill="#dce1e7"/><g fill="#b9c2cf"><path d="m208 39h-16v88c0-16.225 6.049-31.029 16-42.31z"/><path d="m208 135h-16v88c0-16.225 6.049-31.029 16-42.31z"/><path d="m304 231h16v88c0-16.225-6.049-31.029-16-42.31z"/><path d="m304 39h16v88c0-16.225-6.049-31.029-16-42.31z"/><path d="m304 135h16v88c0-16.225-6.049-31.029-16-42.31z"/></g><path d="m192 135v-8c0-35.346 28.654-64 64-64s64 28.654 64 64v8" fill="#fff"/><path d="m192 367h-32v-344c0-8.837 7.163-16 16-16 8.837 0 16 7.163 16 16z" fill="#b9c2cf"/><path d="m192 23v16h-32v-16c0-8.84 7.16-16 16-16 4.42 0 8.42 1.79 11.32 4.68 2.89 2.9 4.68 6.9 4.68 11.32z" fill="#95a4b6"/><path d="m352 367h-32v-344c0-8.837 7.163-16 16-16 8.837 0 16 7.163 16 16z" fill="#b9c2cf"/><path d="m352 23v16h-32v-16c0-8.84 7.16-16 16-16 4.42 0 8.42 1.79 11.32 4.68 2.89 2.9 4.68 6.9 4.68 11.32z" fill="#95a4b6"/><path d="m208 391v24h-64v-24" fill="#72869e"/><path d="m368 391v24h-64v-24" fill="#72869e"/><path d="m160 415h32v96h-32z" fill="#b9c2cf"/><path d="m320 415h32v96h-32z" fill="#b9c2cf"/><path d="m160 415h32v16h-32z" fill="#95a4b6"/><path d="m320 415h32v16h-32z" fill="#95a4b6"/><path d="m0 367h512v24h-512z" fill="#95a4b6"/><path d="m492 367h20v24h-20z" fill="#72869e"/><path d="m486 361v-179.516l13.758 13.758 8.484-8.484-22.242-22.242v-37.516h-12v25.516l-20-20v-37.516h-12v25.516l-20-20v-37.516h-12v25.516l-20-20v-37.516h-12v25.516l-20-20v-13.516c0-12.131-9.869-22-22-22s-22 9.869-22 22v10h-116v-10c0-12.131-9.869-22-22-22s-22 9.869-22 22v13.516l-20 20v-25.516h-12v37.516l-20 20v-25.516h-12v37.516l-20 20v-25.516h-12v37.516l-20 20v-25.516h-12v37.516l-22.242 22.242 8.484 8.484 13.758-13.758v179.516h-26v12h512v-12zm-428 0h-20v-191.516l20-20zm32 0h-20v-223.516l20-20zm32 0h-20v-255.516l20-20zm32 0h-20v-287.516l20-20zm32 0h-20v-316h20zm0-328h-20v-10c0-5.514 4.486-10 10-10s10 4.486 10 10zm128 328h-116v-42c0-31.981 26.019-58 58-58s58 26.019 58 58zm0-81.15c-12.596-18.601-33.894-30.85-58-30.85s-45.404 12.249-58 30.85v-42.85h116zm0-54.85h-116v-2c0-31.981 26.019-58 58-58s58 26.019 58 58zm0-41.15c-12.596-18.601-33.894-30.85-58-30.85s-45.404 12.249-58 30.85v-42.85h116zm0-54.85h-116v-2c0-31.981 26.019-58 58-58s58 26.019 58 58zm0-41.15c-12.596-18.601-33.894-30.85-58-30.85s-45.404 12.249-58 30.85v-42.85h116zm32 273.15h-20v-316h20zm0-328h-20v-10c0-5.514 4.486-10 10-10s10 4.486 10 10zm32 328h-20v-307.516l20 20zm32 0h-20v-275.516l20 20zm32 0h-20v-243.516l20 20zm32 0h-20v-211.516l20 20z" fill="#012d4a"/><path d="m0 397h138v24h16v90h12v-90h20v90h12v-90h16v-24h84v24h16v90h12v-90h20v90h12v-90h16v-24h138v-12h-512zm310 0h52v12h-52zm-160 0h52v12h-52z" fill="#012d4a"/></svg>