<svg id="Layer_1" height="512" viewBox="0 0 128 128" width="512" xmlns="http://www.w3.org/2000/svg" data-name="Layer 1"><rect fill="#ff656b" height="25.177" rx="1.75" width="8.839" x="27.379" y="14.303"/><rect fill="#ff656b" height="25.177" rx="1.75" width="8.839" x="48.847" y="14.303"/><rect fill="#ff656b" height="25.177" rx="1.75" width="8.839" x="70.314" y="14.303"/><rect fill="#ff656b" height="25.177" rx="1.75" width="8.839" x="91.782" y="14.303"/><path d="m98.871 14.3h-2.671v25.179h2.669a1.75 1.75 0 0 0 1.75-1.75v-21.676a1.75 1.75 0 0 0 -1.748-1.753z" fill="#ff2836"/><path d="m77.4 14.3h-2.666v25.179h2.666a1.75 1.75 0 0 0 1.75-1.75v-21.676a1.75 1.75 0 0 0 -1.75-1.753z" fill="#ff2836"/><path d="m55.936 14.3h-2.67v25.179h2.669a1.75 1.75 0 0 0 1.75-1.75v-21.676a1.75 1.75 0 0 0 -1.749-1.753z" fill="#ff2836"/><path d="m34.468 14.3h-2.668v25.179h2.669a1.75 1.75 0 0 0 1.75-1.75v-21.676a1.75 1.75 0 0 0 -1.751-1.753z" fill="#ff2836"/><path d="m13 37.729v59h12.667v-32.329a9 9 0 0 1 18 0v32.329h11.333v-32.329a9 9 0 0 1 18 0v32.329h11.333v-32.329a9 9 0 0 1 18 0v32.329h12.667v-59z" fill="#ffae47"/><path d="m107.667 37.729h7.333v59h-7.333z" fill="#ff8e1f"/><path d="m76.979 37.729h7.333v59h-7.333z" fill="#ff8e1f"/><path d="m47.583 37.729h7.333v59h-7.333z" fill="#ff8e1f"/><path d="m18.187 37.729h7.333v59h-7.333z" fill="#ff8e1f"/><g fill="#8b3120"><path d="m115 35.979h-8.933a1.75 1.75 0 1 0 0 3.5h7.183v55.5h-9.167v-30.579a10.75 10.75 0 0 0 -21.5 0v30.579h-25.833v-30.579a7.25 7.25 0 0 1 14.5 0v24.35a1.75 1.75 0 0 0 3.5 0v-24.35a10.75 10.75 0 0 0 -21.5 0v30.579h-7.833v-10.354a1.75 1.75 0 0 0 -3.5 0v10.354h-14.5v-30.579a7.25 7.25 0 0 1 14.5 0v6.1a1.75 1.75 0 0 0 3.5 0v-6.1a10.75 10.75 0 0 0 -21.5 0v30.579h-9.167v-55.5h41.186a1.75 1.75 0 0 0 1.75-1.75v-7.213a15.4 15.4 0 0 0 12.629 0v5.464h-7.19a1.75 1.75 0 0 0 0 3.5h35.747a1.75 1.75 0 0 0 1.75-1.75v-7.214a14.1 14.1 0 0 0 6.314 1.354 15.289 15.289 0 0 0 4.9-.771 1.75 1.75 0 0 0 -1.135-3.311 11.767 11.767 0 0 1 -3.763.582c-3.8 0-6.314-1.556-6.314-2.585v-2.231a14.1 14.1 0 0 0 6.314 1.354 15.28 15.28 0 0 0 4.9-.772 1.75 1.75 0 0 0 -1.135-3.311 11.784 11.784 0 0 1 -3.763.583c-3.8 0-6.314-1.556-6.314-2.585v-2.77a1.75 1.75 0 0 0 -1.75-1.75h-5.344a1.75 1.75 0 0 0 -1.75 1.75v2.771c0 1.029-2.519 2.585-6.314 2.585s-6.314-1.556-6.314-2.585v-2.771a1.75 1.75 0 0 0 -1.754-1.753h-5.336a1.75 1.75 0 0 0 -1.75 1.75v2.771c0 1.029-2.519 2.585-6.314 2.585s-6.314-1.556-6.314-2.585v-2.768a1.75 1.75 0 0 0 -1.75-1.75h-5.336a1.75 1.75 0 0 0 -1.75 1.75v2.771c0 1.029-2.519 2.585-6.314 2.585s-6.314-1.556-6.314-2.585v-2.771a1.75 1.75 0 0 0 -1.75-1.75h-5.343a1.75 1.75 0 0 0 -1.75 1.75v2.771c0 .8-1.718 2.145-4.826 2.5a1.75 1.75 0 1 0 .4 3.477 13.2 13.2 0 0 0 4.427-1.25v2.235c0 1.029-2.519 2.585-6.314 2.585a11.732 11.732 0 0 1 -3.763-.583 1.75 1.75 0 0 0 -1.138 3.312 15.3 15.3 0 0 0 4.9.772 14.1 14.1 0 0 0 6.314-1.354v5.464h-14.379a1.75 1.75 0 0 0 -1.75 1.75v59a1.75 1.75 0 0 0 1.75 1.747h102a1.75 1.75 0 0 0 1.75-1.75v-59a1.75 1.75 0 0 0 -1.75-1.75zm-35.847-5.463a15.4 15.4 0 0 0 12.629 0v5.464h-12.629zm16.129-12.716h1.839v18.179h-1.839zm-9.814 7.105a14.1 14.1 0 0 0 6.314-1.354v2.231c0 1.029-2.519 2.585-6.314 2.585s-6.314-1.556-6.314-2.585v-2.228a14.1 14.1 0 0 0 6.314 1.354zm-11.654-7.105h1.839v18.179h-1.839zm-9.814 7.108a14.1 14.1 0 0 0 6.314-1.354v2.231c0 1.029-2.519 2.585-6.314 2.585s-6.314-1.556-6.314-2.585v-2.231a14.1 14.1 0 0 0 6.314 1.354zm-11.653-7.108h1.839v18.179h-1.839zm-9.814 7.105a14.1 14.1 0 0 0 6.314-1.354v12.428h-12.629v-5.463a14.1 14.1 0 0 0 6.314 1.354 1.75 1.75 0 0 0 0-3.5c-3.8 0-6.314-1.556-6.314-2.585v-2.231a14.1 14.1 0 0 0 6.314 1.354zm-11.654-7.105h1.839v18.179h-1.839zm55.204 46.6a7.25 7.25 0 0 1 14.5 0v30.579h-14.5z"/><path d="m43.667 75.583a1.75 1.75 0 0 0 -1.75 1.75v.855a1.75 1.75 0 0 0 3.5 0v-.855a1.75 1.75 0 0 0 -1.75-1.75z"/><path d="m16.167 24.137q.355.122.731.226a1.75 1.75 0 1 0 .939-3.371q-.276-.078-.538-.167a1.75 1.75 0 0 0 -1.133 3.313z"/><path d="m103.417 102.588h-1.083a1.75 1.75 0 0 0 0 3.5h1.083a1.75 1.75 0 0 0 0-3.5z"/><path d="m95.333 102.588h-18.833a1.75 1.75 0 0 0 0 3.5h18.833a1.75 1.75 0 0 0 0-3.5z"/><path d="m69.917 104.338a1.75 1.75 0 0 0 -1.75-1.75h-43.584a1.75 1.75 0 1 0 0 3.5h43.584a1.75 1.75 0 0 0 1.75-1.75z"/><path d="m90.417 110.2h-35.25a1.75 1.75 0 0 0 0 3.5h35.25a1.75 1.75 0 0 0 0-3.5z"/><path d="m45.667 110.2h-8.084a1.75 1.75 0 0 0 0 3.5h8.083a1.75 1.75 0 0 0 0-3.5z"/></g></svg>