<svg id="Layer_1" height="512" viewBox="0 0 128 128" width="512" xmlns="http://www.w3.org/2000/svg" data-name="Layer 1"><path d="m90.917 71.12v-3.12a1.75 1.75 0 0 0 -3.5 0v4.5a1.75 1.75 0 0 0 1.75 1.75.882.882 0 1 1 -.732 1.374 1.75 1.75 0 1 0 -2.9 1.959 4.381 4.381 0 1 0 5.383-6.463z" fill="#f1f3fa"/><path d="m89.167 25.25a1.75 1.75 0 0 0 -1.75 1.75v31.333a1.75 1.75 0 0 0 3.5 0v-31.333a1.75 1.75 0 0 0 -1.75-1.75z" fill="#f1f3fa"/><path d="m45.279 36h-7l1.05-23h4.9z" fill="#f1f3fa"/><path d="m45.279 36h-3.5v-23h2.45z" fill="#d8e2eb"/><path d="m51.971 73.962v-.005l-1.444-38.023a1.75 1.75 0 0 0 -1.749-1.684h-14a1.75 1.75 0 0 0 -1.749 1.684l-.382 10.066c0 .01 0 .019-.006.029s0 .041 0 .062l-1.054 27.809c0 .019-.007.037-.007.056s0 .026 0 .039l-.563 14.832-.706 18.595v.1l-.281 7.407a1.75 1.75 0 0 0 1.749 1.816h20a1.75 1.75 0 0 0 1.749-1.816zm-15.571-34.671 2.337 1.651-2.466 1.742zm10.877 3.4-2.472-1.746 2.343-1.655zm-5.501 22.366-5.293-4.2 5.293-5.118 5.294 5.118zm6.334-.557.219 5.755-3.736-2.964zm-9.15 2.791-3.731 2.96.218-5.747zm2.816 2.234 5.693 4.516-5.693 4.859-5.693-4.862zm6.834 8.145.278 7.307-4.417-3.777zm-.8-20.962-3.52-3.4 3.271-3.163zm-6.034-5.838-4.654-4.5 4.653-3.286 4.653 3.286zm0-12.071-1.486-1.049h2.97zm-2.518 14.501-3.515 3.4.249-6.556zm-.177 27.9-4.411 3.772.277-7.3zm-3.73 7.789 6.425-5.487 6.424 5.492-6.425 6.384zm3.942 8.85-5.313 5.279.386-10.173zm9.9-4.9.387 10.184-5.318-5.284zm-15.593 20.311.19-5 7.99-7.939 8 7.944.19 5z" fill="#869aff"/><path d="m65.535 93.975h21.801v7.008h-21.801z" fill="#ffae47"/><path d="m65.535 107.992h21.801v7.008h-21.801z" fill="#ffae47"/><path d="m87.335 107.992h21.801v7.008h-21.801z" fill="#ffae47"/><path d="m76.435 100.983h21.801v7.008h-21.801z" fill="#ce5d42"/><path d="m27.029 107.5h29.5v7.5h-29.5z" fill="#ce5d42"/><path d="m13 20.633h102v6.367h-102z" fill="#869aff"/><path d="m92.479 68h-6.625l-2-3.333 1-6.334h8.625l1 6.334z" fill="#6f6fff"/><path d="m108.633 20.633h6.367v6.367h-6.367z" fill="#6f6fff"/><path d="m48.585 107.5h7.944v7.5h-7.944z" fill="#a9403a"/><path d="m89.547 58.333h-4.693l-1 6.334 2 3.333h2.693l2-3.333z" fill="#869aff"/><path d="m82.227 93.975h5.108v7.008h-5.108z" fill="#ff8e1f"/><path d="m82.227 107.992h5.108v7.008h-5.108z" fill="#ff8e1f"/><path d="m93.127 100.983h5.108v7.008h-5.108z" fill="#a9403a"/><g fill="#8b3120"><path d="m75.063 102.733a1.75 1.75 0 1 0 0-3.5h-.625a1.75 1.75 0 1 0 0 3.5z"/><path d="m69.167 25.25a1.75 1.75 0 0 0 0 3.5h.833a1.75 1.75 0 0 0 0-3.5z"/><path d="m115 28.75a1.75 1.75 0 0 0 1.75-1.75v-6.367a1.744 1.744 0 0 0 -1.522-1.727.384.384 0 0 0 -.04-.013l-70.772-7.633a1.723 1.723 0 0 0 -.187-.01h-4.9a1.749 1.749 0 0 0 -.487.069l-26.329 7.633c-.011 0-.02.013-.031.017a1.744 1.744 0 0 0 -1.232 1.663v6.368a1.75 1.75 0 0 0 1.75 1.75h23.858l-.251 5.5h-1.829c-.036 0-.071.008-.107.01a1.726 1.726 0 0 0 -.216.021c-.051.009-.1.026-.147.04a1.751 1.751 0 0 0 -.175.053c-.049.019-.093.045-.139.069a1.708 1.708 0 0 0 -.16.084c-.045.029-.085.065-.127.1a1.7 1.7 0 0 0 -.136.109 1.752 1.752 0 0 0 -.221.254c-.009.012-.013.026-.022.038a1.739 1.739 0 0 0 -.146.258c-.022.048-.034.1-.051.147a1.078 1.078 0 0 0 -.083.37c0 .043-.016.085-.018.13l-.383 10.067c0 .01 0 .02-.006.03s0 .042 0 .063l-1.053 27.807c0 .02-.007.038-.008.058s0 .027 0 .041l-.563 14.828v.005l-.642 16.916h-3.35a1.75 1.75 0 0 0 -1.75 1.75v5.75h-6.15a1.75 1.75 0 0 0 0 3.5h95.875a1.75 1.75 0 0 0 0-3.5h-4.114v-5.259a1.75 1.75 0 0 0 -1.75-1.75h-9.15v-5.258a1.75 1.75 0 0 0 -1.75-1.75h-9.15v-5.256a1.75 1.75 0 0 0 -1.75-1.75h-21.8a1.75 1.75 0 0 0 -1.75 1.75v7.009a1.75 1.75 0 0 0 1.75 1.75h3.214a1.75 1.75 0 1 0 0-3.5h-1.466v-3.509h18.3v3.509h-4.96a1.75 1.75 0 1 0 0 3.5h15.86v3.508h-30.95a1.75 1.75 0 0 0 -1.75 1.75v5.259h-35.006v-4h27.75a1.75 1.75 0 0 0 0-3.5h-3.349l-2.652-69.817a1.746 1.746 0 0 0 -.824-1.416c-.016-.01-.033-.016-.049-.026a1.749 1.749 0 0 0 -.247-.122c-.033-.013-.068-.02-.1-.031a1.717 1.717 0 0 0 -.215-.059 1.777 1.777 0 0 0 -.185-.018c-.043 0-.084-.012-.128-.012h-1.829l-.251-5.5h15.801a1.75 1.75 0 0 0 0-3.5h-47.75v-2.867h98.5v2.867h-37.125a1.75 1.75 0 0 0 0 3.5h11.292v27.833h-2.563a1.75 1.75 0 0 0 -1.729 1.478l-1 6.334a1.749 1.749 0 0 0 .228 1.173l2 3.333a1.751 1.751 0 0 0 1.5.85h1.563v2.749a1.75 1.75 0 0 0 1.75 1.75.882.882 0 1 1 -.732 1.374 1.75 1.75 0 1 0 -2.9 1.959 4.381 4.381 0 1 0 5.383-6.463v-1.37h1.563a1.751 1.751 0 0 0 1.5-.85l2-3.333a1.749 1.749 0 0 0 .228-1.173l-1-6.334a1.75 1.75 0 0 0 -1.729-1.478h-2.562v-27.832zm-16.765 80.991h9.15v3.509h-18.3v-3.509zm-30.951 0h18.3v3.509h-18.3zm-28.543-68.8-2.466 1.741.129-3.392zm3.034 2.143 4.653 3.286-4.653 4.5-4.654-4.5zm-2.517 10.216-3.515 3.4.249-6.556zm5.213 27.9 4.139-3.53.278 7.307zm3.729 7.794-6.425 6.384-6.425-6.384 6.425-5.487zm-6.424-19.469 5.693 4.516-5.693 4.859-5.693-4.862zm-6.547.726.218-5.746 3.513 2.786zm9.363-2.96 3.518-2.791.219 5.755zm-2.816-2.234-5.293-4.2 5.293-5.118 5.294 5.118zm-2.695 16.143-4.41 3.767.277-7.3zm.212 16.64-5.312 5.278.386-10.171zm2.483 2.467 5.474 5.439h-10.95zm2.483-2.467 4.932-4.9.387 10.184zm.035-44.54 3.271-3.163.249 6.567zm2.988-10.617-2.472-1.746 2.343-1.655zm-5.507-3.883-1.485-1.05h2.97zm1.672-4.549h-3.337l.251-5.5h2.839zm-6.138-15.368h-11.988l12.149-3.522zm3.735-4.133h1.529l.178 4.133h-1.926zm5.026.209 36.383 3.924h-36.2zm46.581 49.353-1.163 1.938h-4.642l-1.163-1.938.667-4.229h5.635z"/><path d="m13.875 113.25h-.875a1.75 1.75 0 0 0 0 3.5h.875a1.75 1.75 0 0 0 0-3.5z"/></g></svg>