<svg id="Layer_1" enable-background="new 0 0 128 128" height="512" viewBox="0 0 128 128" width="512" xmlns="http://www.w3.org/2000/svg"><path d="m22 34.7h38.9v80.3h-38.9z" fill="#ffdc83"/><path d="m50 34.7h10.9v80.3h-10.9z" fill="#ffae47"/><path d="m32.9 90.1h17.1v24.9h-17.1z" fill="#ce5d42"/><path d="m28.8 41.4h25.2v6.8h-25.2z" fill="#f1f3fa"/><path d="m28.6 56.3h8.2v8.2h-8.2z" fill="#f1f3fa"/><path d="m45.8 56.3h8.2v8.2h-8.2z" fill="#f1f3fa"/><path d="m28.6 71.4h8.2v8.2h-8.2z" fill="#f1f3fa"/><path d="m45.8 71.4h8.2v8.2h-8.2z" fill="#f1f3fa"/><path d="m60.9 87.8h15.6v6.8h-15.6z" fill="#ffae47"/><path d="m68.6 94.6h15.6v6.8h-15.6z" fill="#ce5d42"/><path d="m60.9 101.4h15.6v6.8h-15.6z" fill="#ffae47"/><path d="m68.6 108.2h15.6v6.8h-15.6z" fill="#ce5d42"/><path d="m60.9 94.6h7.8v6.8h-7.8z" fill="#ce5d42"/><path d="m82.4 77.4h-9.3v-9.2l4.7-3 4.6 3z" fill="#ce5d42"/><path d="m50 41.4h4.1v6.8h-4.1z" fill="#d8e2eb"/><path d="m50 56.3h4.1v8.2h-4.1z" fill="#d8e2eb"/><path d="m50 71.4h4.1v8.2h-4.1z" fill="#d8e2eb"/><path d="m41.4 90.1h8.5v24.9h-8.5z" fill="#a9403a"/><path d="m71.4 87.8h5.1v6.8h-5.1z" fill="#ff8e1f"/><path d="m71.4 101.4h5.1v6.8h-5.1z" fill="#ff8e1f"/><path d="m79.2 94.6h5.1v6.8h-5.1z" fill="#a9403a"/><path d="m63.6 94.6h5.1v6.8h-5.1z" fill="#a9403a"/><path d="m79.2 108.2h5.1v6.8h-5.1z" fill="#a9403a"/><g fill="#8b3120"><path d="m37.2 36.4c1 0 1.8-.8 1.8-1.8s-.8-1.8-1.8-1.8h-1.4c-1 0-1.8.8-1.8 1.8s.8 1.8 1.8 1.8z"/><path d="m28.6 32.9h-6.6c-1 0-1.8.8-1.8 1.8v73.5c0 1 .8 1.8 1.8 1.8s1.8-.8 1.8-1.8v-71.8h4.9c1 0 1.8-.8 1.8-1.8s-.9-1.7-1.9-1.7z"/><path d="m27.1 41.4v6.8c0 1 .8 1.8 1.8 1.8h25.1c1 0 1.8-.8 1.8-1.8v-6.8c0-1-.8-1.8-1.8-1.8h-25.2c-.9.1-1.7.9-1.7 1.8zm3.5 1.8h21.7v3.3h-21.7z"/><path d="m38.6 56.3c0-1-.8-1.8-1.8-1.8h-8.2c-1 0-1.8.8-1.8 1.8v8.2c0 1 .8 1.8 1.8 1.8h8.2c1 0 1.8-.8 1.8-1.8zm-3.5 6.5h-4.7v-4.7h4.7z"/><path d="m55.8 56.3c0-1-.8-1.8-1.8-1.8h-8.2c-1 0-1.8.8-1.8 1.8v8.2c0 1 .8 1.8 1.8 1.8h8.2c1 0 1.8-.8 1.8-1.8zm-3.5 6.5h-4.7v-4.7h4.7z"/><path d="m36.9 69.7h-8.2c-1 0-1.8.8-1.8 1.8v8.2c0 1 .8 1.8 1.8 1.8h8.2c1 0 1.8-.8 1.8-1.8v-8.2c-.1-1-.9-1.8-1.8-1.8zm-1.8 8.2h-4.7v-4.7h4.7z"/><path d="m54 69.7h-8.2c-1 0-1.8.8-1.8 1.8v8.2c0 1 .8 1.8 1.8 1.8h8.2c1 0 1.8-.8 1.8-1.8v-8.2c0-1-.8-1.8-1.8-1.8zm-1.7 8.2h-4.7v-4.7h4.7z"/><path d="m104.4 106.5c-1 0-1.8.8-1.8 1.8v.8c0 1 .8 1.8 1.8 1.8s1.8-.8 1.8-1.8v-.8c0-1.1-.8-1.8-1.8-1.8z"/><path d="m106.2 24.4h8.8c1 0 1.8-.8 1.8-1.8v-9.6c0-1-.8-1.8-1.8-1.8h-102c-1.2 0-1.8.8-1.8 1.8v9.7c0 1 .8 1.8 1.8 1.8h63v39.9l-3.8 2.5c-.5.3-.8.9-.8 1.5v9.1c0 1 .8 1.8 1.8 1.8h9.3c1 0 1.8-.8 1.8-1.8v-9.1c0-.6-.3-1.1-.8-1.5l-3.8-2.5v-40h13.3v88.8h-22.6v-3.2h13.8c1 0 1.8-.8 1.8-1.8s-.8-1.8-1.8-1.8h-6v-3.3h6c1 0 1.8-.8 1.8-1.8v-6.8c0-1-.8-1.8-1.8-1.8h-6v-5c0-1-.8-1.8-1.8-1.8h-9.1c-1 0-1.8.8-1.8 1.8s.8 1.8 1.8 1.8h7.3v3.3h-12v-58.1c0-1-.8-1.8-1.8-1.8h-16.4c-1 0-1.8.8-1.8 1.8s.8 1.8 1.8 1.8h14.7v76.8h-24.4v-21.5h13.6v16.4c0 1 .8 1.8 1.8 1.8s1.8-.8 1.8-1.8v-18.1c0-1-.8-1.8-1.8-1.8h-17.2c-1 0-1.8.8-1.8 1.8v23.2h-18.1c-1 0-1.8.8-1.8 1.8s.8 1.8 1.8 1.8h102c1 0 1.8-.8 1.8-1.8s-.8-1.8-1.8-1.8h-18.5v-12.5l6.2-6.2v6.9c0 1 .8 1.8 1.8 1.8s1.8-.8 1.8-1.8v-77.1zm-25.6 51.2h-5.8v-6.4l2.9-1.9 2.9 1.9zm-5.9 30.9h-12.1v-3.3h12.1zm7.8-10.1v3.3h-12.1v-3.3zm-15.6 0v3.3h-4.3v-3.3zm-4.3 13.6h4.3v3.3h-4.3zm-35.7-89.1 5.4-5.4 3.6 3.6c.6.7 1.8.8 2.5.1.7-.6.8-1.8.1-2.5 0 0-.1-.1-.1-.1l-1.8-1.9h10.9l-6.2 6.2zm-4.2-.7-5.4-5.4h10.9zm29-4.7 5.4 5.4h-10.9zm4.2-.8h10.9l-5.4 5.4zm15.1.8 5.4 5.4h-10.8zm4.2-.7h10.9l-5.4 5.4zm15.9 0h1.9v6.2h-8.1zm5.4 0h6.2v6.2h-6.2zm6.2 32.6-5.5-5.4 3.6-3.6c.7-.7.7-1.8 0-2.5s-1.8-.7-2.5 0l-1.8 1.9v-10.9l6.2 6.2zm-.8 4.3-5.4 5.4v-10.9zm.8 4.2v10.9l-5.4-5.4zm-.8 15.1-5.4 5.4v-10.8zm.8 4.2v10.9l-5.4-5.4zm0-47.1-3.7-3.7h3.7zm10.6-7.2h-7.1v-6.2h7.1zm-98.5-3.7 3.7 3.7h-3.7zm81.7 67.7 5.4 5.4-5.4 5.4z"/></g></svg>