<svg height="480pt" viewBox="0 0 480 480" width="480pt" xmlns="http://www.w3.org/2000/svg"><path d="m360 216-16-80v16zm0 0" fill="#a08871"/><path d="m264 24c0-8.835938-7.164062-16-16-16h-192c-8.835938 0-16 7.164062-16 16v96h224zm0 0" fill="#e6e7e8"/><path d="m200 200c0-8.835938-7.164062-16-16-16h-64c-8.835938 0-16 7.164062-16 16v16h96zm0 0" fill="#a7a9ac"/><path d="m128 152h48v32h-48zm0 0" fill="#d1d3d4"/><path d="m248 152c8.835938 0 16-7.164062 16-16v-16h-224v16c0 8.835938 7.164062 16 16 16zm0 0" fill="#939598"/><path d="m440 216h16l-16-80h-96l16 80zm0 0" fill="#ffeb99"/><path d="m344 136-16 80h32zm0 0" fill="#ffda44"/><path d="m440 216h-432v256h32v-224h400v224h32v-256zm0 0" fill="#603913"/><path d="m40 248h400v160h-400zm0 0" fill="#301d0a"/><path d="m472 208h-9.441406l-14.71875-73.601562c-.761719-3.722657-4.039063-6.398438-7.839844-6.398438h-96c-.238281 0-.480469.160156-.800781.160156-.734375.082032-1.457031.242188-2.160157.480469-.300781.140625-.59375.300781-.878906.480469-.660156.386718-1.277344.84375-1.839844 1.359375-.160156.238281-.398437.238281-.480468.480469-.078125.078124-.078125.238281-.160156.320312-.496094.648438-.875 1.378906-1.121094 2.160156-.117188.257813-.226563.527344-.320313.796875 0 .082031-.078125.082031-.078125.160157l-14.71875 73.601562h-113.441406v-8c-.039062-13.238281-10.761719-23.960938-24-24v-16h64c13.238281-.039062 23.960938-10.761719 24-24v-112c-.039062-13.238281-10.761719-23.9609375-24-24h-192c-13.238281.0390625-23.960938 10.761719-24 24v112c.039062 13.238281 10.761719 23.960938 24 24h64v16c-13.238281.039062-23.960938 10.761719-24 24v8h-88c-4.417969 0-8 3.582031-8 8v256c0 4.417969 3.582031 8 8 8h32c4.417969 0 8-3.582031 8-8v-56h384v56c0 4.417969 3.582031 8 8 8h32c4.417969 0 8-3.582031 8-8v-256c0-4.417969-3.582031-8-8-8zm-38.558594-64 12.796875 64h-79.679687l-12.796875-64zm-90.320312 37.359375 6.640625 26.640625h-12zm-295.121094-157.359375c0-4.417969 3.582031-8 8-8h192c4.417969 0 8 3.582031 8 8v88h-208zm8 120c-4.417969 0-8-3.582031-8-8v-8h208v8c0 4.417969-3.582031 8-8 8zm112 16v16h-32v-16zm-56 40c0-4.417969 3.582031-8 8-8h64c4.417969 0 8 3.582031 8 8v8h-80zm320 200h-384v-144h384zm32 64h-16v-216c0-4.417969-3.582031-8-8-8h-400c-4.417969 0-8 3.582031-8 8v216h-16v-240h448zm0 0"/></svg>