<?xml version="1.0" encoding="UTF-8"?>
<svg xmlns="http://www.w3.org/2000/svg" xmlns:xlink="http://www.w3.org/1999/xlink" width="512" height="512" viewBox="0 0 60 60" version="1.1"><!-- Generator: Sketch 51.3 (57544) - http://www.bohemiancoding.com/sketch --><title>009 - Molten Metal Mould</title><desc>Created with Sketch.</desc><defs/><g id="Page-1" stroke="none" stroke-width="1" fill="none" fill-rule="evenodd"><g id="009---Molten-Metal-Mould" transform="translate(-1.000000, 0.000000)" fill-rule="nonzero"><polygon id="Shape" fill="#37474F" points="48 52 48 59 2 59 2 52 24.2 48.96 25.75 48.75"/><polygon id="Shape" fill="#607D8B" points="45 52 45 59 2 59 2 52 24.2 48.96"/><path d="M44.406,33.157 C43.676,33.717 40.96,33.94 40.206,33.94 C40.1657403,33.9416438 40.1254323,33.9382848 40.086,33.93 C39.310789,33.8409459 38.6604807,33.3042456 38.426,32.56 L42.026,31.031 L44.406,33.157 Z" id="Shape" fill="#2C2F38"/><path d="M54.3,8.2 L50.8,7.914 L48.76,5.38 C49.380396,4.98187326 50.1709324,4.96259189 50.81,5.33 C50.8332364,5.3314659 50.8548855,5.34229045 50.87,5.36 C51.33,5.68 54.1,7.523 54.3,8.2 Z" id="Shape" fill="#2C2F38"/><path d="M28.42,8.63 C28.4145695,8.63539389 28.4110568,8.64241924 28.41,8.65 C27.54,10.19 29.749,9.63 29.219,11.5 C29.179,11.64 26.21,14.05 26.18,14.19 L2,4.19 L2,1 L9.96,1 L28.42,8.63 Z" id="Shape" fill="#7F8E94"/><path d="M42.32,2.16 L48.76,5.38 L50.47,6.23 L51.84,6.92 L51.85,6.92 C52.31,8.4 54.28,10.39 54.19,11.44 C53.7849333,15.3000758 52.7865135,19.0745071 51.23,22.63 C49.9950379,25.8662561 48.2347461,28.8766591 46.02,31.54 C45.63,31.98 43.11,32.5 42.52,32.95 L42.51,32.95 L40.53,32.76 L38.43,32.56 L33.32,32.06 L42.32,2.16 Z" id="Shape" fill="#7F8E94"/><path d="M59.13,23.14 C57.44,29.1 53.34,33.32 49.36,33.62 L49.31,33.62 L47.63,33.45 C47.64,33.45 47.64,33.45 47.65,33.44 L47.66,33.44 C47.9825432,33.2274605 48.1862839,32.8755447 48.21,32.49 C48.29,31.75 47.95,30.91 48.38,30.32 C50.137465,27.8676428 51.5506086,25.1860346 52.58,22.35 C53.7522209,19.4236555 54.4867791,16.3405325 54.76,13.2 C54.81,12.48 55.88,11.47 56.37,10.47 C56.5788162,10.1143927 56.6499751,9.69455499 56.57,9.29 C59.62,11.75 60.77,17.35 59.13,23.14 Z" id="Shape" fill="#545C60"/><path d="M57.13,22.14 C55.56,27.68 51.91,31.71 48.21,32.49 C48.29,31.75 47.95,30.91 48.38,30.32 C50.137465,27.8676428 51.5506086,25.1860346 52.58,22.35 C53.7522209,19.4236555 54.4867791,16.3405325 54.76,13.2 C54.81,12.48 55.88,11.47 56.37,10.47 C58,13.36 58.39,17.69 57.13,22.14 Z" id="Shape" fill="#7F8E94"/><path d="M40.09,33.93 C40.1294323,33.9382848 40.1697403,33.9416438 40.21,33.94 L40.09,33.94 L40.09,33.93 Z" id="Shape" fill="#5E5F62"/><path d="M48,52 L2,52 L12.4,39.71 C12.7803791,39.2593344 13.3402649,38.9995181 13.93,39 L36.07,39 C36.6597351,38.9995181 37.2196209,39.2593344 37.6,39.71 L48,52 Z" id="Shape" fill="#545C60"/><path d="M45,52 L2,52 L12.4,39.71 C12.7803791,39.2593344 13.3402649,38.9995181 13.93,39 L33.07,39 C33.6597351,38.9995181 34.2196209,39.2593344 34.6,39.71 L45,52 Z" id="Shape" fill="#7F8E94"/><path d="M23.1,43.06 C19.6,43.27 17,44.06 17,45 C17,45.94 19.55,46.71 23,46.93 C23.64,46.98 24.31,47 25,47 C25.34,47 25.67,46.99 26,46.98 C29.95,46.86 33,46.02 33,45 C33,44.02 30.18,43.21 26.46,43.03" id="Shape" fill="#FF5722"/><circle id="Oval" fill="#F3D55B" cx="17" cy="29" r="2"/><path d="M46.8,16.04 C46.8,16.05 46.8,16.05 46.79,16.06 C46.6436567,17.1857031 46.4130086,18.2988312 46.1,19.39 C45.4482963,21.7215004 44.4324482,23.9354419 43.09,25.95 C43.09,25.96 43.08,25.96 43.08,25.97 C42.0839572,27.4685833 40.8551768,28.7986368 39.44,29.91 C37.730261,31.3486817 35.5538701,32.1132635 33.32,32.06 L33.29,32.06 C32.9083924,32.0433393 32.5296181,31.9863555 32.16,31.89 L26.43,26.25 C25.1164228,22.349966 25.0291748,18.1411203 26.18,14.19 C26.21,14.05 26.25,13.92 26.29,13.78 C26.790628,11.9919443 27.5023005,10.2698312 28.41,8.65 C28.4110568,8.64241924 28.4145695,8.63539389 28.42,8.63 C31.46,3.24 36.26,0.15 40.51,1.35 C41.1374649,1.52850091 41.7366777,1.79444363 42.29,2.14 C42.3,2.15 42.31,2.16 42.32,2.16 C44.74,3.69 46.32,6.72 46.83,10.44 L46.83,10.45 C47.0646662,12.3066175 47.0545801,14.1860082 46.8,16.04 Z" id="Shape" fill="#CFD8DC"/><path d="M42.95,18.19 C42.63178,19.319761 42.209992,20.4177489 41.69,21.47 C40.76,21.11 39.9,20.8 39.11,20.55 C38.32,20.3 37.6,20.08 36.94,19.92 C35.1455849,19.3654271 33.2538243,19.1984068 31.39,19.43 C30.8797163,19.4751877 30.3950964,19.6739168 30,20 C29.6149255,20.4261951 29.266992,20.8845306 28.96,21.37 C28.880563,20.7030902 28.8471506,20.0315012 28.86,19.36 C28.8864328,17.681233 29.1352664,16.0133754 29.6,14.4 C30.97,9.58 33.88,5.95 36.82,4.97 C37.6880213,4.66038253 38.6296691,4.6220191 39.52,4.86 C40.1400897,5.03910521 40.7112137,5.35715629 41.19,5.79 C43.62,7.92 44.44,12.93 42.95,18.19 Z" id="Shape" fill="#FDD834"/><path d="M39.95,18.19 C39.7257709,18.9954174 39.4450759,19.7840365 39.11,20.55 C38.98,20.86 38.84,21.17 38.69,21.47 C37.1410246,20.853441 35.5545073,20.3357354 33.94,19.92 C33.1004285,19.7064249 32.2489352,19.5428046 31.39,19.43 C30.5524488,19.3061655 29.7031171,19.2826662 28.86,19.36 C28.8864328,17.681233 29.1352664,16.0133754 29.6,14.4 C30.97,9.58 33.88,5.95 36.82,4.97 C37.3259902,5.15091382 37.7914818,5.42952927 38.19,5.79 C40.62,7.92 41.44,12.93 39.95,18.19 Z" id="Shape" fill="#FFEB3A"/><path d="M41.69,21.47 C40.7480913,23.5588163 39.2887141,25.3727121 37.45,26.74 C36.4284938,27.4127323 35.4800187,28.1902808 34.62,29.06 C34.41,29.28 34.2,29.5 33.99,29.73 L33.99,29.74 C33.39,30.4 32.77,31.12 32.16,31.89 C29.03,35.84 26,41.17 26,47 L23,47 C23,46.32 23.01,45.65 23.03,45 C23.24,36.33 24.83,30.25 26.43,26.26 L26.43,26.25 C27.1035468,24.5407829 27.9513538,22.9054873 28.96,21.37 C29.266992,20.8845306 29.6149255,20.4261951 30,20 C30,20 31.34,18.51 36.94,19.92 C37.6,20.08 38.33,20.29 39.12,20.55 C39.91,20.81 40.76,21.11 41.69,21.47 Z" id="Shape" fill="#F57C00"/><path d="M39.12,20.55 C38.2239173,22.2025137 36.9700622,23.6340268 35.45,24.74 C34.4284938,25.4127323 33.4800187,26.1902808 32.62,27.06 C32.41,27.28 32.2,27.5 31.99,27.73 L31.99,27.74 C31.39,28.4 30.77,29.12 30.16,29.89 C27.03,33.84 24,39.17 24,45 L23.03,45 C23.24,36.33 24.83,30.25 26.43,26.26 L26.43,26.25 C27.1035468,24.5407829 27.9513538,22.9054873 28.96,21.37 C29.266992,20.8845306 29.6149255,20.4261951 30,20 C30,20 31.34,18.51 36.94,19.92 C37.6,20.08 38.33,20.29 39.12,20.55 Z" id="Shape" fill="#FF9801"/><path d="M56.76,13.2 C56.4867791,16.3405325 55.7522209,19.4236555 54.58,22.35 C53.5506086,25.1860346 52.137465,27.8676428 50.38,30.32 C49.6415152,31.495429 48.7237619,32.5481459 47.66,33.44 L47.65,33.44 C47.64,33.45 47.64,33.45 47.63,33.45 C47.1592019,33.8024292 46.5880761,33.9951404 46,34 L44.23,33.98 L40.21,33.94 C41.0613818,33.8588391 41.8658353,33.5125744 42.51,32.95 L42.52,32.95 C43.06343,32.5284529 43.5656765,32.0563412 44.02,31.54 C46.2347461,28.8766591 47.9950379,25.8662561 49.23,22.63 C50.7865135,19.0745071 51.7849333,15.3000758 52.19,11.44 C52.3364346,9.92498099 52.2214276,8.39606478 51.85,6.92 L51.84,6.92 C51.81,6.82 51.78,6.73 51.75,6.64 C51.5948848,6.13317877 51.2876672,5.68631673 50.87,5.36 L54.99,7.19 C55.8249326,7.59153414 56.4110977,8.37557656 56.56,9.29 L56.57,9.29 C56.831142,10.5761701 56.8952074,11.8945699 56.76,13.2 Z" id="Shape" fill="#37474F"/><path d="M54.76,13.2 C54.4867791,16.3405325 53.7522209,19.4236555 52.58,22.35 C51.5506086,25.1860346 50.137465,27.8676428 48.38,30.32 C47.6415152,31.495429 46.7237619,32.5481459 45.66,33.44 L45.65,33.44 C45.64,33.45 45.64,33.45 45.63,33.45 C45.2214479,33.7529587 44.7367565,33.936449 44.23,33.98 L40.21,33.94 C41.0613818,33.8588391 41.8658353,33.5125744 42.51,32.95 L42.52,32.95 C43.06343,32.5284529 43.5656765,32.0563412 44.02,31.54 C46.2347461,28.8766591 47.9950379,25.8662561 49.23,22.63 C50.7865135,19.0745071 51.7849333,15.3000758 52.19,11.44 C52.3364346,9.92498099 52.2214276,8.39606478 51.85,6.92 L51.84,6.92 C51.81,6.82 51.78,6.73 51.75,6.64 L52.99,7.19 C53.8249326,7.59153414 54.4110977,8.37557656 54.56,9.29 L54.57,9.29 C54.831142,10.5761701 54.8952074,11.8945699 54.76,13.2 Z" id="Shape" fill="#545C60"/><path d="M48,53 L2,53 C1.61048917,53.0002582 1.25627277,52.7743218 1.09228316,52.4210144 C0.928293548,52.0677069 0.984375865,51.6513282 1.236,51.354 L11.636,39.062 C12.2064613,38.3879215 13.0449329,37.9994151 13.928,38 L23.42,38 C23.9722847,38 24.42,38.4477153 24.42,39 C24.42,39.5522847 23.9722847,40 23.42,40 L13.928,40 C13.6332949,39.9995104 13.3533794,40.1290399 13.163,40.354 L4.156,51 L45.844,51 L36.836,40.354 C36.6458462,40.1293072 36.3663557,39.999805 36.072,40 L27.8,40 C27.2477153,40 26.8,39.5522847 26.8,39 C26.8,38.4477153 27.2477153,38 27.8,38 L36.072,38 C36.954368,38.0000036 37.7919902,38.3884555 38.362,39.062 L48.762,51.354 C49.0133909,51.651052 49.0696223,52.0669644 48.906138,52.4201076 C48.7426537,52.7732509 48.3891491,52.9994798 48,53 Z" id="Shape" fill="#000000"/><path d="M25,48 C24.231,48 23.552,47.976 22.923,47.927 C20.346,47.763 16,47.163 16,45 C16,42.811 20.41,42.22 23.04,42.062 C23.3972656,42.0407427 23.7387333,42.211699 23.9357755,42.5104715 C24.1328176,42.8092439 24.1554989,43.1904418 23.9952755,43.5104715 C23.835052,43.8305012 23.5162656,44.0407427 23.159,44.062 C21.4906397,44.083648 19.8393636,44.4012401 18.282,45 C19.8081672,45.5902886 21.4268532,45.905494 23.063,45.931 C24.0301833,45.9972789 25.0001554,46.0133004 25.969,45.979 C27.9302671,46.0097383 29.880333,45.6778338 31.721,45 C30.0247498,44.3559838 28.2253927,44.0262711 26.411,44.027 C26.1460298,44.0140568 25.8970609,43.8963576 25.7188904,43.6998074 C25.5407199,43.5032571 25.4479503,43.243965 25.461,42.979 C25.502325,42.4341286 25.9626998,42.0168041 26.509,42.029 C29.309,42.165 34,42.729 34,44.998 C34,47.469 28.427,47.905 26.03,47.977 C25.69,47.99 25.351,48 25,48 Z" id="Shape" fill="#000000"/><path d="M33.785,33.075 C33.608,33.075 33.433,33.069 33.256,33.058 C32.7977423,33.0408492 32.3427204,32.9737863 31.899,32.858 C31.5459274,32.7721321 31.2672175,32.5015002 31.1710053,32.1511051 C31.074793,31.8007099 31.1762208,31.425699 31.4359364,31.1715703 C31.695652,30.9174417 32.0727796,30.8241918 32.421,30.928 C32.7226396,31.0060654 33.0316942,31.0519878 33.343,31.065 C38.073,31.365 43.119,26.232 45.138,19.12 C47.365,11.251 45.167,3.712 40.238,2.32 C37.926,1.666 35.323,2.47 32.9,4.587 C30.1551714,7.14344885 28.1962463,10.4296004 27.253,14.06 C26.0552718,17.9218029 26.0940798,22.0613313 27.364,25.9 C27.4777891,26.2394023 27.4018656,26.6137288 27.1648291,26.8819742 C26.9277926,27.1502196 26.5656547,27.2716311 26.2148291,27.2004742 C25.8640035,27.1293172 25.5777891,26.8764023 25.464,26.537 C24.0687243,22.3147425 24.0198026,17.7632729 25.324,13.512 C26.3730472,9.50703407 28.5446187,5.885204 31.583,3.073 C34.532,0.5 37.8,-0.457 40.782,0.388 C46.773,2.088 49.59,10.731 47.062,19.663 C44.826,27.541 39.3,33.075 33.785,33.075 Z" id="Shape" fill="#000000"/><path d="M49.31,34.62 C48.7577153,34.62 48.31,34.1722847 48.31,33.62 C48.31,33.0677153 48.7577153,32.62 49.31,32.62 C52.91,32.35 56.643,28.247 58.168,22.867 C59.655,17.615 58.754,12.374 55.978,10.097 C55.6301342,9.84246932 55.4845094,9.3936775 55.6166545,8.98339205 C55.7487996,8.57310659 56.1289744,8.29366473 56.56,8.29 L56.57,8.29 C56.7985518,8.29006041 57.0201867,8.36840905 57.198,8.512 C60.662,11.306 61.825,17.294 60.092,23.412 C58.318,29.669 53.937,34.277 49.436,34.612 C49.41,34.619 49.335,34.62 49.31,34.62 Z" id="Shape" fill="#000000"/><path d="M51.849,7.92 C51.6946298,7.9213287 51.5420247,7.8871123 51.403,7.82 L41.873,3.06 C41.8383926,3.04183295 41.8049902,3.0214575 41.773,2.999 C41.3043321,2.6947099 41.1701682,2.06861148 41.473,1.599 C41.7633194,1.14603059 42.3631629,1.00941935 42.821,1.292 L52.3,6.025 C52.715452,6.23205992 52.9337945,6.69779068 52.8272238,7.14958366 C52.7206531,7.60137663 52.3171918,7.9204339 51.853,7.92 L51.849,7.92 Z" id="Shape" fill="#000000"/><path d="M49.36,34.62 L49.31,34.62 C49.2735835,34.6200226 49.237194,34.6180195 49.201,34.614 L47.542,34.434 C47.1830557,34.399842 46.8702944,34.175096 46.7234377,33.8457924 C46.576581,33.5164887 46.6183724,33.1336259 46.8328145,32.8437598 C47.0472566,32.5538937 47.4011393,32.4019152 47.759,32.446 L49.404,32.625 C49.9230662,32.669891 50.3246666,33.0990987 50.335,33.62 C50.3406356,33.8825738 50.2405346,34.1364011 50.0571895,34.3244473 C49.8738445,34.5124935 49.6226323,34.6189874 49.36,34.62 Z" id="Shape" fill="#000000"/><path d="M42.521,33.95 C42.489,33.95 42.457,33.95 42.421,33.95 L33.221,33.059 C32.6871212,33.0089808 32.2851593,32.5508496 32.305,32.015 C32.3238122,31.4853236 32.7579912,31.0652786 33.288,31.064 L33.298,31.064 C33.33,31.064 33.384,31.064 33.416,31.069 L42.616,31.959 C43.1682847,31.9846813 43.5951812,32.4532153 43.5695,33.0055 C43.5438187,33.5577847 43.0752847,33.9846812 42.523,33.959 L42.521,33.95 Z" id="Shape" fill="#000000"/><path d="M23,48 C22.4477153,48 22,47.5522847 22,47 C22,38.787 23.178,31.684 25.5,25.888 C26.1985145,24.1096719 27.0795599,22.4085741 28.129,20.812 C28.4693836,20.2754309 28.8558432,19.7695201 29.284,19.3 C29.677,18.863 32.271,16.718 42.054,20.538 C42.3914696,20.6645656 42.634721,20.9629406 42.6907044,21.318989 C42.7466878,21.6750374 42.6067403,22.0336648 42.3243955,22.2576871 C42.0420506,22.4817094 41.6609981,22.5364618 41.327,22.401 C32.897,19.11 30.749,20.675 30.693,20.718 C30.3648605,21.096101 30.0640979,21.4971178 29.793,21.918 C28.8197211,23.4005706 28.0026912,24.9800053 27.355,26.631 C25.13,32.19 24,39.043 24,47 C24,47.5522847 23.5522847,48 23,48 Z" id="Shape" fill="#000000"/><path d="M26,48 C25.4477153,48 25,47.5522847 25,47 C25,41.9 27.146,36.608 31.376,31.269 C32.15,30.294 32.998,29.318 33.896,28.369 C34.8014006,27.4483918 35.8027754,26.6273785 36.883,25.92 C38.5753805,24.6454322 39.9194029,22.9650602 40.791,21.034 C41.2865295,20.0346906 41.688252,18.9915513 41.991,17.918 C43.599,12.244 42.343,6.704 39.249,5.818 C36.156,4.953 32.171,9 30.562,14.673 C29.9317673,16.8049319 29.7248787,19.0396006 29.953,21.251 C30.0187219,21.7994187 29.6274187,22.2972781 29.079,22.363 C28.5305813,22.4287219 28.0327219,22.0374187 27.967,21.489 C27.7077015,19.0147284 27.9356614,16.5136244 28.638,14.127 C30.606,7.183 35.506,2.688 39.791,3.9 C44.076,5.112 45.88,11.519 43.912,18.465 C43.5773712,19.6539455 43.133827,20.8095037 42.587,21.917 C41.5642287,24.1568052 39.9918549,26.1017192 38.016,27.571 C37.0526078,28.1992948 36.158603,28.9280411 35.349,29.745 C34.491,30.653 33.682,31.586 32.943,32.515 C30.232,35.933 27,41.225 27,47 C27,47.5522847 26.5522847,48 26,48 Z" id="Shape" fill="#000000"/><path d="M48,60 L2,60 C1.44771525,60 1,59.5522847 1,59 L1,52 C1,51.4477153 1.44771525,51 2,51 L48,51 C48.5522847,51 49,51.4477153 49,52 L49,59 C49,59.5522847 48.5522847,60 48,60 Z M3,58 L47,58 L47,53 L3,53 L3,58 Z" id="Shape" fill="#000000"/><path d="M28.42,9.63 C28.2889392,9.62971647 28.159189,9.60390229 28.038,9.554 L9.578,1.924 C9.07753808,1.70687453 8.84344328,1.12870768 9.05186792,0.624560114 C9.26029256,0.120412547 9.83431804,-0.123661285 10.342,0.076 L28.8,7.706 C29.2404596,7.88827802 29.4910267,8.3561125 29.3986629,8.82376503 C29.3062991,9.29141755 28.8966851,9.62886282 28.42,9.63 Z" id="Shape" fill="#000000"/><path d="M26.18,15.19 C26.0488904,15.1902115 25.9190446,15.1643783 25.798,15.114 L1.618,5.114 C1.28168012,4.98173204 1.04289328,4.67829301 0.993411291,4.32030222 C0.943929307,3.96231142 1.09145212,3.60547614 1.37928298,3.38693719 C1.66711384,3.16839824 2.05046312,3.12216268 2.382,3.266 L26.562,13.266 C27.0028033,13.448424 27.2533662,13.9168174 27.1604619,14.3847435 C27.0675577,14.8526696 26.6570598,15.1898129 26.18,15.19 Z" id="Shape" fill="#000000"/><path d="M2,5.19 C1.44771525,5.19 1,4.74228475 1,4.19 L1,1 C1,0.44771525 1.44771525,1.01453063e-16 2,0 L9.96,0 C10.5122847,3.38176876e-17 10.96,0.44771525 10.96,1 C10.96,1.55228475 10.5122847,2 9.96,2 L3,2 L3,4.19 C3,4.74228475 2.55228475,5.19 2,5.19 Z" id="Shape" fill="#000000"/><path d="M40.206,34.94 C40.0640514,34.9403243 39.922292,34.9296255 39.782,34.908 C38.7339887,34.7137666 37.8699641,33.973719 37.517,32.968 C37.3712356,32.6418165 37.4105606,32.2626462 37.6201616,31.9733188 C37.8297626,31.6839914 38.1777963,31.5284627 38.5331616,31.5653188 C38.888527,31.6021749 39.1972356,31.8258165 39.343,32.152 C39.661,32.866 39.982,32.916 40.088,32.932 C40.788,33.041 42.097,32.196 43.272,30.875 C45.4195256,28.3006899 47.1216453,25.3855225 48.308,22.25 C49.8272571,18.7910182 50.7992099,15.11676 51.189,11.359 C51.368,9.239 51.08,6.718 50.289,6.168 C50.204,6.109 49.942,5.925 49.194,6.283 C48.6952869,6.52075858 48.0982586,6.30921313 47.8605,5.8105 C47.6227414,5.31178687 47.8342869,4.71475858 48.333,4.477 C49.2893156,3.90327359 50.4881631,3.92109744 51.427,4.523 C53.488,5.95 53.295,10.246 53.186,11.528 C52.7800979,15.4922321 51.7581399,19.3688572 50.157,23.018 C48.8714962,26.3520267 47.0524272,29.4548465 44.771,32.205 C44.006,33.06 42.113,34.94 40.206,34.94 Z" id="Shape" fill="#000000"/><path d="M46.055,35 L45.977,35 L40.084,34.941 C39.5317153,34.9382385 39.0862386,34.4882847 39.0890001,33.936 C39.0917615,33.3837153 39.5417153,32.9382386 40.094,32.941 L40.104,32.941 L46.01,33 L46.039,33 C47.228,33 48.426,31.323 49.222,30.209 C49.348,30.034 49.466,29.868 49.575,29.72 C51.2821936,27.3472933 52.6519197,24.7491887 53.645,22 C54.7830803,19.1664452 55.4977445,16.1807592 55.766,13.139 C55.842,12.039 56.066,8.703 54.619,8.122 C54.2752177,7.99805194 54.0264256,7.69644495 53.9701143,7.33536543 C53.9138029,6.9742859 54.0589413,6.61124439 54.3486561,6.38850073 C54.6383709,6.16575708 55.026518,6.11878854 55.361,6.266 C58.161,7.387 57.872,11.666 57.761,13.276 C57.4791568,16.5134917 56.7223818,19.6918793 55.515,22.709 C54.4565719,25.6313159 52.9983763,28.3929022 51.182,30.915 L50.848,31.377 C49.813,32.821 48.256,35 46.055,35 Z" id="Shape" fill="#000000"/><path d="M54.989,8.19 C54.851133,8.18949816 54.7148906,8.16020606 54.589,8.104 L50.4,6.244 C50.0675861,6.10264101 49.837245,5.79299887 49.7974289,5.43397793 C49.7576128,5.074957 49.9145115,4.72236927 50.2078749,4.51161045 C50.5012383,4.30085164 50.8854612,4.26468548 51.213,4.417 L55.4,6.276 C55.8319659,6.46774367 56.0707176,6.93571997 55.972418,7.39799405 C55.8741183,7.86026813 55.4656095,8.19060857 54.993,8.19 L54.989,8.19 Z" id="Shape" fill="#000000"/><path d="M17,32 C15.3431458,32 14,30.6568542 14,29 C14,27.3431458 15.3431458,26 17,26 C18.6568542,26 20,27.3431458 20,29 C20,30.6568542 18.6568542,32 17,32 Z M17,28 C16.4477153,28 16,28.4477153 16,29 C16,29.5522847 16.4477153,30 17,30 C17.5522847,30 18,29.5522847 18,29 C18,28.4477153 17.5522847,28 17,28 Z" id="Shape" fill="#000000"/><circle id="Oval" fill="#000000" cx="11" cy="24" r="1"/><circle id="Oval" fill="#000000" cx="14" cy="19" r="1"/></g></g></svg>
