<?xml version="1.0" encoding="iso-8859-1"?>
<!-- Generator: Adobe Illustrator 19.0.0, SVG Export Plug-In . SVG Version: 6.00 Build 0)  -->
<svg version="1.1" id="Capa_1" xmlns="http://www.w3.org/2000/svg" xmlns:xlink="http://www.w3.org/1999/xlink" x="0px" y="0px"
	 viewBox="0 0 496 496" style="enable-background:new 0 0 496 496;" xml:space="preserve">
<path style="fill:#FFA64D;" d="M320,240h-32v-96h32c8.84,0,16,7.16,16,16v64C336,232.84,328.84,240,320,240z"/>
<g>
	<path style="fill:#333333;" d="M434.856,286.64c36-16.368,61.144-52.592,61.144-94.648c0-57.344-46.656-104-104-104
		c-5.712,0-11.376,0.64-16.992,1.56c-2.832-10.096-12.016-17.56-23.008-17.56h-32c-22.056,0-40,17.944-40,40v160
		c0,17.76,11.712,32.68,27.76,37.88C295.136,326.488,288,346.936,288,368v40.896l-72-61.712V240c0-13.232-10.768-24-24-24v-80
		c0-22.056-17.944-40-40-40h-24V80H91.432v16H112v16H80v-1.336H64V128h64v-16h24c13.232,0,24,10.768,24,24v80
		c-13.232,0-24,10.768-24,24v131.464V432c0,13.232,10.768,24,24,24h16c9.888,0,18.384-6.008,22.056-14.568l49.248,42.68
		c8.848,7.672,20.168,11.888,31.864,11.888c0.28,0,0.552-0.04,0.832-0.04V496h184V368C480,334.608,462.44,303.96,434.856,286.64z
		 M376,151.992h10.232l8,24H400c8.824,0,16,7.176,16,16s-7.176,16-16,16h-8v8c0,22.528,12,43.736,31.32,55.328l2.904,1.744
		c-10.528,4.464-22.096,6.928-34.224,6.928c-5.4,0-10.736-0.656-16-1.624V151.992z M480,191.992c0,29.8-14.928,56.144-37.664,72.072
		l-10.784-6.464c-12.544-7.528-20.992-20.456-23.064-34.752C422.032,219.12,432,206.696,432,191.992
		c0-15.608-11.232-28.648-26.048-31.448l-8.184-24.552H376v-30.368c5.272-0.968,10.608-1.632,16-1.632
		C440.52,103.992,480,143.472,480,191.992z M296,271.992v-24h24c13.232,0,24-10.768,24-24V216h-16v7.992c0,4.416-3.584,8-8,8h-24
		v-80h24c4.416,0,8,3.584,8,8V200h16v-40.008c0-13.232-10.768-24-24-24h-24v-24c0-13.232,10.768-24,24-24h32c4.416,0,8,3.584,8,8
		v192c0,4.416-3.584,8-8,8h-32C306.768,295.992,296,285.224,296,271.992z M200,337.616c-3.28-0.984-6.68-1.616-10.16-1.616h-2.384
		c-7.192,0-13.864,2.184-19.464,5.872V264h32v73.616H200z M176,232h16c4.416,0,8,3.584,8,8v8h-32v-8
		C168,235.584,171.584,232,176,232z M200,432c0,4.416-3.584,8-8,8h-16c-4.416,0-8-3.584-8-8v-30.48l32,27.736V432z M273.792,472.024
		l-99.08-85.856c-4.264-3.696-6.712-9.056-6.712-14.704c0-10.736,8.728-19.464,19.464-19.464h2.384c4.64,0,9.144,1.664,12.664,4.68
		L306.8,446.072l10.408-12.144l-10.672-9.152L344,387.312L372.688,416l-54.448,54.448
		C306.616,482.072,286.2,482.784,273.792,472.024z M384,404.68L355.32,376l42.056-42.056c3.832-3.832,8.928-5.944,14.344-5.944
		c11.176,0,20.28,9.104,20.28,20.288c0,5.424-2.112,10.512-5.936,14.344L384,404.68z M464,480H331.312l106.064-106.064
		c6.848-6.848,10.624-15.96,10.624-25.656c0-20.008-16.272-36.288-36.28-36.288c-9.688,0-18.8,3.776-25.656,10.632L304,404.688V368
		c0-21.232,8.192-40.968,23.008-56.008H352c10.984,0,20.176-7.464,23.008-17.56c5.608,0.92,11.272,1.56,16.992,1.56
		c7.4,0,14.616-0.808,21.584-2.288C443.816,305.768,464,335.312,464,368V480z"/>
	<rect x="312" y="104" style="fill:#333333;" width="16" height="16"/>
</g>
<polygon style="fill:#FFA64D;" points="72,122.96 121.528,65.168 107.784,37.672 47.024,63.712 39.064,0 0,0 0,240 39.92,241.136 
	46.904,192.232 107.784,218.328 121.528,190.832 72,133.04 "/>
<path style="fill:#333333;" d="M0,496h64V232H0V496z M16,248h32v232H16V248z"/>
<g>
</g>
<g>
</g>
<g>
</g>
<g>
</g>
<g>
</g>
<g>
</g>
<g>
</g>
<g>
</g>
<g>
</g>
<g>
</g>
<g>
</g>
<g>
</g>
<g>
</g>
<g>
</g>
<g>
</g>
</svg>
