<svg id="Capa_1" enable-background="new 0 0 512 512" height="512" viewBox="0 0 512 512" width="512" xmlns="http://www.w3.org/2000/svg"><g><path d="m512 182.857v-73.173l-73.143-36.571h-9.421v109.744z" fill="#febf01"/><path d="m462.678 408.714h-.318c-13.203 0-25.608-5.149-34.93-14.5s-14.434-21.771-14.393-34.975c.016-5.172-1.986-10.039-5.639-13.702-3.651-3.663-8.512-5.681-13.685-5.681h-56.613v-30h56.614c13.204 0 25.609 5.149 34.931 14.5s14.434 21.772 14.393 34.975c-.016 5.172 1.986 10.039 5.639 13.702 3.651 3.663 8.512 5.681 13.684 5.681h.318c10.654 0 19.322-8.668 19.322-19.323v-69.069c0-10.655-8.668-19.323-19.322-19.323h-.212c-27.197 0-49.323-22.126-49.323-49.323v-181.518l77.149-38.575 13.416 26.833-60.565 30.283v162.978c0 10.655 8.668 19.323 19.323 19.323h.212c27.195 0 49.321 22.126 49.321 49.323v69.069c0 27.196-22.126 49.322-49.322 49.322z" fill="#03995a"/><path d="m365.71 36.57v422.29h-329.14v-422.29c0-20.2 16.38-36.57 36.57-36.57h256c20.2 0 36.57 16.37 36.57 36.57z" fill="#f8fa00"/><path d="m365.71 36.57v422.29h-164.57v-458.86h128c20.2 0 36.57 16.37 36.57 36.57z" fill="#febf01"/><path d="m0 438.86h402.29v73.14h-402.29z" fill="#56c125"/><path d="m201.14 438.86h201.15v73.14h-201.15z" fill="#03995a"/><path d="m302.25 301.35s-6.13 4.43-15.42 11.14c-17.36 12.54-45.77 33.06-65.86 47.56-6.27 4.53-12.96 7.97-19.83 10.32-22.36 7.64-46.58 3.7-64.31-11.96-3.6-3.17-6.92-6.82-9.91-10.96-3.22-4.46-5.81-9.17-7.78-14-11.66-28.59-1.74-61.83 27.11-76.84 19.57-10.18 38.01-13.81 54.89-13.25 36.11 1.18 65.05 21.5 82.57 37.76 11.91 11.05 18.54 20.23 18.54 20.23z" fill="#abe233"/><path d="m302.25 301.35s-6.13 4.43-15.42 11.14c-17.36 12.54-45.77 33.06-65.86 47.56-6.27 4.53-12.96 7.97-19.83 10.32v-127.01c36.11 1.18 65.05 21.5 82.57 37.76 11.91 11.05 18.54 20.23 18.54 20.23z" fill="#56c125"/><path d="m302.25 301.35s-6.13 4.43-15.42 11.14c-28.47-7.12-58.29-5.72-85.69 3.61-14.01 4.77-27.38 11.61-39.62 20.45-9.46 6.83-17.67 14.08-24.69 21.86-22.41 24.85-32.67 55.13-32.67 100.45h-30c0-39.24 6.61-67.52 20.2-92.23 6.59-11.98 14.79-22.98 24.78-33.18 7.29-7.47 15.54-14.52 24.82-21.22 17.3-12.5 36.75-21.85 57.18-27.59 7.46-2.11 15.06-3.73 22.72-4.84 19.81-2.88 40.14-2.41 59.85 1.32 11.91 11.05 18.54 20.23 18.54 20.23z" fill="#56c125"/><path d="m302.25 301.35s-6.13 4.43-15.42 11.14c-28.47-7.12-58.29-5.72-85.69 3.61v-31.46c7.46-2.11 15.06-3.73 22.72-4.84 19.81-2.88 40.14-2.41 59.85 1.32 11.91 11.05 18.54 20.23 18.54 20.23z" fill="#03995a"/><path d="m105.54 73.11h187.03v94.42h-187.03z" fill="#eef6ff"/><path d="m201.14 73.11h91.43v94.42h-91.43z" fill="#c0defe"/><path d="m90.54 58.11v124.42h217.03v-124.42zm187.03 94.42h-157.03v-64.42h157.03z" fill="#56c125"/><path d="m307.57 58.11v124.42h-106.43v-30h76.43v-64.42h-76.43v-30z" fill="#03995a"/></g></svg>