<svg id="Flat" enable-background="new 0 0 512 512" height="512" viewBox="0 0 512 512" width="512" xmlns="http://www.w3.org/2000/svg"><g><g fill="#7f8b8c"><path d="m160 256h192v32h-192z"/><path d="m24 256h104v32h-104z"/><g><path d="m352 120c-4.418457 0-8 3.5820313-8 8 0 48.5234375-39.4765625 88-88 88s-88-39.4765625-88-88c0-4.4179688-3.581543-8-8-8s-8 3.5820313-8 8c0 29.4277344 12.2883911 56.0368652 32 74.973877v53.026123h16v-40.3981934c5.0522461 3.2409668 10.4038696 6.0529785 16 8.3935547v32.0046387h16v-26.800293c5.1953735 1.2319336 10.5383911 2.078125 16 2.4956055v24.3046875h16v-24.3046875c5.4616699-.4174805 10.8046875-1.2636719 16-2.4956055v26.800293h16v-32.0046387c5.5960693-2.3405762 10.9477539-5.1525879 16-8.3935547v40.3981934h16v-53.026123c19.7116699-18.9370118 32-45.5461426 32-74.973877 0-4.4179687-3.581543-8-8-8z"/><path d="m128 120c-4.418457 0-8 3.5820313-8 8 0 48.5234375-39.4765625 88-88 88h-8c-4.418457 0-8 3.5820313-8 8s3.581543 8 8 8h8c8.2581787 0 16.2926636-.9726563 24-2.800293v26.800293h16v-32.0046387c5.5960693-2.3405762 10.9477539-5.1525879 16-8.3935547v40.3981934h16v-53.026123c19.7116089-18.9370118 32-45.5461426 32-74.973877 0-4.4179687-3.581543-8-8-8z"/><path d="m488 216h-8c-48.5234375 0-88-39.4765625-88-88 0-4.4179688-3.581543-8-8-8s-8 3.5820313-8 8c0 29.4277344 12.2883301 56.0368652 32 74.973877v53.026123h16v-40.3981934c5.0522461 3.2409668 10.4038086 6.0529785 16 8.3935547v32.0046387h16v-26.800293c7.7072754 1.8276368 15.7418213 2.800293 24 2.800293h8c4.418457 0 8-3.5820313 8-8s-3.581543-8-8-8z"/></g><path d="m384 256h104v32h-104z" transform="matrix(-1 0 0 -1 872 544)"/></g><path d="m128 128h32v208h-32z" fill="#bcc2c6"/><path d="m352 128h32v208h-32z" fill="#bcc2c6"/><path d="m104 384 16-48h48l16 48z" fill="#7f8b8c"/><path d="m408 384-16-48h-48l-16 48z" fill="#7f8b8c"/></g></svg>