<svg height="472pt" viewBox="-12 0 472 472" width="472pt" xmlns="http://www.w3.org/2000/svg"><path d="m44.960938 271.359375-12.960938 8.640625v32h-16l-16-32 8-16zm0 0" fill="#898890"/><path d="m264 288h184v184h-184zm0 0" fill="#e0e0e2"/><path d="m104 112-32 200h128l-32-200zm0 0" fill="#c6c5ca"/><path d="m176 288h88v88h-88zm0 0" fill="#acabb1"/><path d="m56 376h152v96h-152zm0 0" fill="#787680"/><path d="m328 408h56v64h-56zm0 0" fill="#c0ab91"/><path d="m384 320h32v32h-32zm0 0" fill="#bdfdff"/><path d="m296 320h32v32h-32zm0 0" fill="#bdfdff"/><path d="m416 320h-32v32c0-17.671875 14.328125-32 32-32zm0 0" fill="#fff"/><path d="m328 320h-32v32c0-17.671875 14.328125-32 32-32zm0 0" fill="#fff"/><path d="m176 80-8 32h-64l-8-32zm0 0" fill="#898890"/><path d="m88 280-16-8 8.960938-6.71875 23.039062-17.28125 38.878906 31.121094-14.878906 8.878906 8 24h-48zm0 0" fill="#3e3d42"/><path d="m44.960938 271.359375 11.039062-7.359375 32 16v32h-56v-32zm0 0" fill="#acabb1"/><path d="m192 312-3.839844 32.480469-4.160156-.480469h-180.238281l-3.761719-32zm0 0" fill="#b39a7c"/><path d="m208 376h56v96h-56zm0 0" fill="#898890"/><path d="m320 232v56h-128l5.359375-4.960938 4.320313-4 50.960937-47.039062zm0 0" fill="#787680"/><path d="m320 192v40h-67.359375l43.359375-40zm0 0" fill="#d8d7da"/><path d="m424 192h-32l-35.574219 40h67.574219zm0 0" fill="#acabb1"/><path d="m424 232v56h-104v-15.039062l36.398438-40.960938zm0 0" fill="#c6c5ca"/><g fill="#e0e0e2"><path d="m344 432h16v16h-16zm0 0"/><path d="m152 24v-24h-16v16h-16c-4.417969 0-8 3.582031-8 8v40h16v-32h16c4.417969 0 8-3.582031 8-8zm0 0"/><path d="m168 40h-16c-4.417969 0-8 3.582031-8 8v16h16v-8h16c4.417969 0 8-3.582031 8-8v-16h-16zm0 0"/><path d="m168 0h16v16h-16zm0 0"/></g><path d="m240 400h24v16h-24zm0 0" fill="#acabb1"/><path d="m240 432h24v16h-24zm0 0" fill="#acabb1"/><path d="m120 112h16v24h-16zm0 0" fill="#d8d7da"/><path d="m144 112h16v40h-16zm0 0" fill="#d8d7da"/><path d="m192 288v24h-56l-8-24 14.878906-8.878906 25.121094-15.121094zm0 0" fill="#57565c"/><path d="m192 312-3.761719 32h-184.476562l-3.761719-32zm0 0" fill="#b39a7c"/><path d="m188.238281 344-12.238281 104h-160l-12.238281-104zm0 0" fill="#d9ccbc"/><path d="m188.238281 344h-184.476562l1.878906 16h180.71875zm0 0" fill="#957856"/><path d="m72 448h104v8h-104zm0 0" fill="#57565c"/><path d="m80 448c0 13.253906-10.746094 24-24 24s-24-10.746094-24-24 10.746094-24 24-24 24 10.746094 24 24zm0 0" fill="#acabb1"/><path d="m160 448c0 13.253906-10.746094 24-24 24s-24-10.746094-24-24 10.746094-24 24-24 24 10.746094 24 24zm0 0" fill="#acabb1"/><path d="m64 448c0 4.417969-3.582031 8-8 8s-8-3.582031-8-8 3.582031-8 8-8 8 3.582031 8 8zm0 0" fill="#787680"/><path d="m144 448c0 4.417969-3.582031 8-8 8s-8-3.582031-8-8 3.582031-8 8-8 8 3.582031 8 8zm0 0" fill="#787680"/><path d="m24 320h48c4.417969 0 8 3.582031 8 8s-3.582031 8-8 8h-48c-4.417969 0-8-3.582031-8-8s3.582031-8 8-8zm0 0" fill="#c0ab91"/></svg>