<?xml version="1.0" encoding="utf-8"?>
<!-- Generator: Adobe Illustrator 16.0.0, SVG Export Plug-In . SVG Version: 6.00 Build 0)  -->
<!DOCTYPE svg PUBLIC "-//W3C//DTD SVG 1.1//EN" "http://www.w3.org/Graphics/SVG/1.1/DTD/svg11.dtd">
<svg version="1.1" id="Capa_1" xmlns="http://www.w3.org/2000/svg" xmlns:xlink="http://www.w3.org/1999/xlink" x="0px" y="0px"
	 width="595.279px" height="645px" viewBox="0 88.445 595.279 645" enable-background="new 0 88.445 595.279 645"
	 xml:space="preserve">
<path display="none" fill="#EBC9A0" d="M249.971,506.981H38.367c-3.21,0-5.813-2.603-5.813-5.813v-81.386
	c0-3.21,2.604-5.813,5.813-5.813h211.604c3.21,0,5.813,2.604,5.813,5.813v81.386C255.784,504.379,253.181,506.981,249.971,506.981z"
	/>
<path display="none" fill="#D7AF87" d="M249.971,434.896H38.367c-3.21,0-5.813-2.603-5.813-5.813v-81.386
	c0-3.21,2.604-5.813,5.813-5.813h211.604c3.21,0,5.813,2.604,5.813,5.813v81.386C255.784,432.294,253.181,434.896,249.971,434.896z"
	/>
<path display="none" fill="#C49D7A" d="M255.784,347.698v81.386c0,3.21-2.604,5.813-5.813,5.813H205.79
	c3.21,0,5.813-2.603,5.813-5.813v-81.386c0-3.21-2.604-5.813-5.813-5.813h44.181C253.181,341.884,255.784,344.488,255.784,347.698z"
	/>
<path display="none" fill="#EBC9A0" d="M249.971,365.138H38.367c-3.21,0-5.813-2.604-5.813-5.813v-81.386
	c0-3.21,2.604-5.813,5.813-5.813h211.604c3.21,0,5.813,2.603,5.813,5.813v81.386C255.784,362.534,253.181,365.138,249.971,365.138z"
	/>
<path display="none" fill="#D7AF87" d="M255.784,277.938v81.386c0,3.21-2.604,5.813-5.813,5.813h-38.367v-5.813v-49.026v-32.36
	c0-3.21-2.604-5.813-5.813-5.813h44.181C253.181,272.125,255.784,274.728,255.784,277.938z"/>
<path display="none" fill="#AFB9D2" d="M523.196,129.118v69.759c0,3.21-2.604,5.813-5.813,5.813H396.466
	c-3.21,0-5.813-2.603-5.813-5.813v-69.759c0-3.21,2.604-5.813,5.813-5.813h120.916C520.592,123.305,523.196,125.908,523.196,129.118
	z"/>
<path display="none" fill="#959CB5" d="M523.196,129.118v69.759c0,3.21-2.604,5.813-5.813,5.813h-41.855
	c3.21,0,5.813-2.603,5.813-5.813v-69.759c0-3.21-2.604-5.813-5.813-5.813h41.855C520.592,123.305,523.196,125.908,523.196,129.118z"
	/>
<path display="none" fill="#D7AF87" d="M249.971,295.378H38.367c-3.21,0-5.813-2.603-5.813-5.813v-81.386
	c0-3.21,2.604-5.813,5.813-5.813h211.604c3.21,0,5.813,2.603,5.813,5.813v81.386C255.784,292.775,253.181,295.378,249.971,295.378z"
	/>
<path display="none" fill="#C49D7A" d="M255.784,208.179v87.199h-44.181v-5.813v-39.821v-41.565c0-3.21-2.604-5.813-5.813-5.813
	h44.181C253.181,202.366,255.784,204.969,255.784,208.179z"/>
<path display="none" fill="#D7AF87" d="M560.401,198.877v302.291c0,3.211-2.604,5.813-5.813,5.813h-34.88
	c-3.21,0-5.813-2.603-5.813-5.813V198.877c0-3.21,2.604-5.813,5.813-5.813h34.88C557.797,193.064,560.401,195.667,560.401,198.877z"
	/>
<path display="none" fill="#EBC9A0" d="M589.467,225.619H5.814c-3.211,0-5.813-2.603-5.813-5.813v-34.88
	c0-3.21,2.603-5.813,5.813-5.813h583.653c3.21,0,5.813,2.604,5.813,5.813v34.88C595.28,223.016,592.677,225.619,589.467,225.619z"/>
<path display="none" fill="#D7AF87" d="M595.28,184.926v34.88c0,3.21-2.603,5.813-5.813,5.813h-34.88
	c3.21,0,5.813-2.603,5.813-5.813v-34.88c0-3.21-2.604-5.813-5.813-5.813h34.88C592.677,179.112,595.28,181.716,595.28,184.926z"/>
<path display="none" fill="#57676E" d="M170.606,472.102c0,4.816-3.904,8.721-8.72,8.721h-35.435c-4.815,0-8.72-3.904-8.72-8.721
	c0-4.815,3.904-8.72,8.72-8.72h35.435C166.701,463.382,170.606,467.286,170.606,472.102z M161.886,391.297h-35.435
	c-4.815,0-8.72,3.904-8.72,8.72c0,4.815,3.904,8.72,8.72,8.72h35.435c4.815,0,8.72-3.904,8.72-8.72
	C170.606,395.202,166.701,391.297,161.886,391.297z M161.886,321.538h-35.435c-4.815,0-8.72,3.904-8.72,8.72
	c0,4.816,3.904,8.72,8.72,8.72h35.435c4.815,0,8.72-3.904,8.72-8.72C170.606,325.442,166.701,321.538,161.886,321.538z
	 M126.452,269.218h35.435c4.816,0,8.72-3.904,8.72-8.72c0-4.816-3.903-8.72-8.72-8.72h-35.435c-4.815,0-8.72,3.904-8.72,8.72
	C117.733,265.314,121.637,269.218,126.452,269.218z"/>
<path display="none" fill="#EBC9A0" d="M308.224,486.364L245.86,714.896c-0.594,2.179-2.572,3.688-4.83,3.688h-23.651
	c-3.164,0-5.535-2.899-4.907-6.001l46.271-228.532c0.473-2.336,2.525-4.014,4.907-4.014h39.745
	C306.695,480.038,309.092,483.179,308.224,486.364z M429.317,712.584l-46.271-228.532c-0.473-2.336-2.525-4.014-4.907-4.014h-39.745
	c-3.303,0-5.701,3.141-4.831,6.326l62.363,228.532c0.595,2.179,2.573,3.688,4.831,3.688h23.65
	C427.573,718.585,429.945,715.686,429.317,712.584z"/>
<path display="none" fill="#FFB446" d="M275.1,440.687v112.802h-63.814c-19.265,0-34.88-15.616-34.88-34.88v-77.922
	c0-19.264,15.615-34.879,34.88-34.879h28.935C259.483,405.808,275.1,421.424,275.1,440.687z M430.501,405.808h-24.735
	c-19.264,0-34.88,15.615-34.88,34.879v112.802h59.615c19.263,0,34.88-15.616,34.88-34.88v-77.922
	C465.381,421.424,449.766,405.808,430.501,405.808z"/>
<path display="none" fill="#FFDC64" d="M405.729,553.488H236.058c-2.319,0-4.199-1.881-4.199-4.2V384.083
	c0-49.172,39.862-89.035,89.034-89.035l0,0c49.173,0,89.035,39.863,89.035,89.035v165.205
	C409.928,551.607,408.048,553.488,405.729,553.488z"/>
<path display="none" fill="#FFF082" d="M231.859,518.945V384.083c0-49.172,39.862-89.035,89.034-89.035l0,0
	c1.566,0,3.123,0.043,4.67,0.122c29.507,14.502,49.821,44.844,49.821,79.942v74.074c0,38.527-31.232,69.76-69.759,69.76H231.859z"/>
<image overflow="visible" width="214" height="167" xlink:href="fbec.png"  transform="matrix(2.3476 0 0 2.3476 46.4446 208.3984)">
</image>
<g display="none">
	<path display="inline" fill="#7F8C8D" d="M530.616,372.288v16.067L321.741,605.266H193.202v-192.81h128.54l104.436-104.438
		l-4.017,20.084c-0.006,11.721,4.647,22.963,12.934,31.251c8.287,8.288,19.53,12.941,31.251,12.934L530.616,372.288L530.616,372.288
		z"/>
	<polygon display="inline" fill="#D1D4D1" points="530.616,372.288 530.616,420.49 482.413,468.691 321.741,637.398 
		305.673,637.398 305.673,589.195 321.741,589.195 482.413,420.49 	"/>
	<polygon display="inline" fill="#ECF0F1" points="530.616,171.445 530.616,195.547 321.741,396.388 64.664,396.388 64.664,380.321 
		273.539,171.445 	"/>
	<polygon display="inline" fill="#7F8C8D" points="169.101,484.759 177.135,484.759 177.135,597.229 64.664,597.229 64.664,589.195 
			"/>
	<polygon display="inline" fill="#D1D4D1" points="530.616,171.445 530.616,219.648 321.741,428.523 313.707,428.523 
		313.707,380.321 321.741,380.321 	"/>
	<path display="inline" fill="#C5CCD4" d="M217.303,472.707v72.304c-0.006,11.722,4.646,22.962,12.934,31.251
		c8.288,8.288,19.53,12.939,31.25,12.934h60.252v48.203H64.664v-48.203h60.252c11.72,0.006,22.962-4.646,31.251-12.934
		c8.288-8.287,12.941-19.529,12.933-31.25v-72.303c0.006-11.721-4.646-22.965-12.933-31.25c-8.289-8.29-19.531-12.941-31.251-12.934
		H64.664v-48.204h257.078v48.204h-60.253c-11.72-0.008-22.963,4.646-31.25,12.934C221.949,449.744,217.297,460.988,217.303,472.707z
		"/>
	<g display="inline">
		<path fill="#95A5A5" d="M257.471,556.658c-2.136,0.02-4.193-0.819-5.703-2.33s-2.351-3.566-2.33-5.704
			c0-4.437,3.597-8.033,8.034-8.033c4.437,0,8.034,3.595,8.034,8.033c0.021,2.138-0.819,4.193-2.33,5.704
			C261.664,555.839,259.609,556.678,257.471,556.658L257.471,556.658z"/>
		<path fill="#95A5A5" d="M281.573,531.43c-3.215,0.002-6.122-1.915-7.387-4.872c-1.266-2.955-0.646-6.382,1.574-8.708l8.034-8.417
			c1.981-2.078,4.92-2.939,7.709-2.263c2.79,0.679,5.006,2.792,5.814,5.547c0.808,2.756,0.084,5.73-1.897,7.808l-8.034,8.42
			C285.871,530.535,283.77,531.435,281.573,531.43L281.573,531.43z"/>
		<path fill="#95A5A5" d="M313.707,497.766c-3.216,0.002-6.123-1.915-7.387-4.872c-1.267-2.955-0.647-6.382,1.573-8.708l8.033-8.417
			c3.063-3.211,8.15-3.331,11.36-0.269c3.211,3.063,3.331,8.15,0.267,11.36l-8.033,8.419
			C318.007,496.87,315.904,497.769,313.707,497.766L313.707,497.766z"/>
		<path fill="#95A5A5" d="M345.842,464.102c-3.215,0.002-6.122-1.916-7.387-4.872c-1.266-2.955-0.646-6.382,1.573-8.708l8.034-8.417
			c3.064-3.211,8.15-3.331,11.36-0.269c3.21,3.063,3.33,8.15,0.268,11.36l-8.035,8.419
			C350.141,463.206,348.038,464.104,345.842,464.102z"/>
		<path fill="#95A5A5" d="M377.977,430.438c-3.215,0-6.122-1.916-7.388-4.872c-1.266-2.957-0.646-6.383,1.575-8.709l8.033-8.418
			c3.063-3.21,8.149-3.33,11.36-0.267c3.211,3.063,3.33,8.149,0.267,11.361l-8.034,8.417
			C382.275,429.542,380.174,430.44,377.977,430.438L377.977,430.438z"/>
		<path fill="#95A5A5" d="M410.112,396.788c-2.146-0.006-4.201-0.875-5.705-2.408c-1.523-1.471-2.367-3.509-2.33-5.625
			c-0.019-3.264,1.939-6.215,4.953-7.466c3.015-1.251,6.486-0.555,8.785,1.763c1.479,1.532,2.313,3.574,2.33,5.704
			c0.034,2.118-0.81,4.154-2.33,5.625C414.313,395.913,412.258,396.782,410.112,396.788L410.112,396.788z"/>
	</g>
</g>
<g display="none">
	<path display="inline" fill="#FEBF01" d="M535.537,348.964v-62.006l-61.981-30.99h-7.983v92.997H535.537z"/>
	<path display="inline" fill="#03995A" d="M493.742,540.354h-0.271c-11.188,0-21.699-4.362-29.599-12.287
		c-7.899-7.923-12.232-18.448-12.197-29.638c0.014-4.383-1.683-8.506-4.778-11.61c-3.094-3.104-7.213-4.814-11.596-4.814h-47.974
		v-25.422h47.974c11.189,0,21.701,4.363,29.601,12.287c7.899,7.925,12.23,18.45,12.196,29.639c-0.014,4.382,1.683,8.507,4.779,11.61
		c3.093,3.104,7.212,4.814,11.595,4.814h0.27c9.028,0,16.373-7.346,16.373-16.375v-58.528c0-9.028-7.345-16.374-16.373-16.374
		h-0.179c-23.047,0-41.797-18.75-41.797-41.796V228.042l65.376-32.688l11.369,22.738l-51.323,25.662V381.86
		c0,9.029,7.346,16.375,16.375,16.375h0.179c23.045,0,41.795,18.75,41.795,41.796v58.529
		C535.537,521.604,516.787,540.354,493.742,540.354z"/>
	<path display="inline" fill="#F8FA00" d="M411.573,225.002v357.846H132.661V225.002c0-17.117,13.881-30.989,30.989-30.989h216.933
		C397.7,194.013,411.573,207.885,411.573,225.002z"/>
	<path display="inline" fill="#FEBF01" d="M411.573,225.002v357.846H272.116V194.013h108.467
		C397.7,194.013,411.573,207.885,411.573,225.002z"/>
	<path display="inline" fill="#56C125" d="M101.672,565.9h340.896v61.978H101.672V565.9z"/>
	<path display="inline" fill="#03995A" d="M272.116,565.9h170.452v61.978H272.116V565.9z"/>
	<path display="inline" fill="#ABE233" d="M357.797,449.374c0,0-5.195,3.754-13.067,9.44c-14.711,10.627-38.785,28.015-55.81,40.302
		c-5.313,3.839-10.982,6.754-16.804,8.745c-18.948,6.475-39.472,3.136-54.496-10.135c-3.051-2.686-5.864-5.779-8.397-9.287
		c-2.729-3.779-4.924-7.771-6.593-11.863c-9.881-24.228-1.475-52.395,22.973-65.114c16.583-8.626,32.209-11.702,46.513-11.228
		c30.6,1,55.123,18.218,69.97,31.998C352.179,441.596,357.797,449.374,357.797,449.374L357.797,449.374z"/>
	<path display="inline" fill="#56C125" d="M357.797,449.374c0,0-5.195,3.754-13.067,9.44c-14.711,10.627-38.785,28.015-55.81,40.302
		c-5.313,3.839-10.982,6.754-16.804,8.745V400.234c30.6,1,55.123,18.218,69.97,31.998
		C352.179,441.596,357.797,449.374,357.797,449.374L357.797,449.374z"/>
	<path display="inline" fill="#56C125" d="M357.797,449.374c0,0-5.195,3.754-13.067,9.44c-24.126-6.033-49.395-4.848-72.613,3.059
		c-11.872,4.043-23.202,9.839-33.574,17.33c-8.017,5.787-14.974,11.931-20.922,18.523c-18.99,21.058-27.684,46.717-27.684,85.121
		h-25.422c0-33.252,5.601-57.217,17.117-78.155c5.585-10.151,12.533-19.473,20.999-28.116c6.178-6.33,13.168-12.305,21.033-17.981
		c14.66-10.593,31.142-18.517,48.454-23.38c6.321-1.788,12.762-3.161,19.253-4.102c16.787-2.44,34.015-2.042,50.717,1.119
		C352.179,441.596,357.797,449.374,357.797,449.374L357.797,449.374z"/>
	<path display="inline" fill="#03995A" d="M357.797,449.374c0,0-5.195,3.754-13.067,9.44c-24.126-6.033-49.395-4.848-72.613,3.059
		v-26.658c6.321-1.788,12.762-3.161,19.253-4.102c16.787-2.44,34.015-2.042,50.717,1.119
		C352.179,441.596,357.797,449.374,357.797,449.374L357.797,449.374z"/>
	<path display="inline" fill="#EEF6FF" d="M191.106,255.965h158.487v80.011H191.106V255.965z"/>
	<path display="inline" fill="#C0DEFE" d="M272.116,255.965h77.477v80.011h-77.477V255.965z"/>
	<path display="inline" fill="#56C125" d="M178.395,243.255v105.433h183.909V243.255H178.395z M336.882,323.266H203.817v-54.589
		h133.065V323.266z"/>
	<path display="inline" fill="#03995A" d="M362.304,243.255v105.433h-90.188v-25.422h64.766v-54.589h-64.766v-25.421H362.304z"/>
</g>
<g transform="translate(0 -1)" display="none">
	<g display="inline">
		<path fill="#BDC3C7" d="M88.861,346.89c-4.801,0-8.699-3.888-8.699-8.699v-52.194c0-4.811,3.897-8.699,8.699-8.699
			c4.802,0,8.7,3.888,8.7,8.699v52.194C97.561,343,93.663,346.89,88.861,346.89"/>
		<path fill="#BDC3C7" d="M297.64,346.89c-4.801,0-8.699-3.888-8.699-8.699v-52.194c0-4.811,3.897-8.699,8.699-8.699
			c4.802,0,8.698,3.888,8.698,8.699v52.194C306.338,343,302.442,346.89,297.64,346.89"/>
		<path fill="#BDC3C7" d="M349.835,346.89c-4.803,0-8.699-3.888-8.699-8.699v-52.194c0-4.811,3.896-8.699,8.699-8.699
			c4.801,0,8.698,3.888,8.698,8.699v52.194C358.533,343,354.636,346.89,349.835,346.89"/>
		<path fill="#BDC3C7" d="M402.029,346.89c-4.801,0-8.698-3.888-8.698-8.699v-52.194c0-4.811,3.897-8.699,8.698-8.699
			c4.802,0,8.699,3.888,8.699,8.699v52.194C410.728,343,406.83,346.89,402.029,346.89"/>
		<path fill="#BDC3C7" d="M454.224,346.89c-4.801,0-8.699-3.888-8.699-8.699v-52.194c0-4.811,3.898-8.699,8.699-8.699
			c4.802,0,8.698,3.888,8.698,8.699v52.194C462.922,343,459.026,346.89,454.224,346.89"/>
		<path fill="#BDC3C7" d="M506.418,346.89c-4.802,0-8.698-3.888-8.698-8.699v-52.194c0-4.811,3.896-8.699,8.698-8.699
			s8.699,3.888,8.699,8.699v52.194C515.117,343,511.22,346.89,506.418,346.89"/>
		<path fill="#BDC3C7" d="M193.251,346.89c-4.802,0-8.699-3.888-8.699-8.699v-52.194c0-4.811,3.897-8.699,8.699-8.699
			c4.801,0,8.699,3.888,8.699,8.699v52.194C201.949,343,198.052,346.89,193.251,346.89"/>
		<path fill="#BDC3C7" d="M141.056,346.89c-4.801,0-8.699-3.888-8.699-8.699v-52.194c0-4.811,3.897-8.699,8.699-8.699
			c4.802,0,8.699,3.888,8.699,8.699v52.194C149.755,343,145.858,346.89,141.056,346.89"/>
		<path fill="#BDC3C7" d="M245.446,346.89c-4.802,0-8.699-3.888-8.699-8.699v-52.194c0-4.811,3.897-8.699,8.699-8.699
			c4.801,0,8.699,3.888,8.699,8.699v52.194C254.144,343,250.247,346.89,245.446,346.89"/>
		<path fill="#BDC3C7" d="M549.914,294.695H45.365c-4.802,0-8.699-3.888-8.699-8.699c0-4.811,3.897-8.699,8.699-8.699h504.548
			c4.802,0,8.698,3.888,8.698,8.699C558.612,290.807,554.716,294.695,549.914,294.695"/>
	</g>
	<polygon display="inline" fill="#D39E5F" points="45.365,372.984 549.914,372.984 549.914,338.188 45.365,338.188 	"/>
	<path display="inline" fill="#FAC176" d="M149.754,590.465H62.763V372.987h469.752v217.478h-86.99
		c0-81.736-66.141-147.885-147.886-147.885C215.902,442.58,149.754,508.729,149.754,590.465"/>
	<g display="inline">
		<path fill="#D39E5F" d="M132.357,425.183H97.561c-4.802,0-8.7-3.889-8.7-8.699c0-4.811,3.897-8.699,8.7-8.699h34.795
			c4.801,0,8.699,3.888,8.699,8.699C141.055,421.294,137.159,425.183,132.357,425.183"/>
		<path fill="#D39E5F" d="M158.454,468.677h-34.797c-4.802,0-8.699-3.889-8.699-8.699c0-4.81,3.897-8.698,8.699-8.698h34.796
			c4.802,0,8.699,3.889,8.699,8.698C167.153,464.788,163.256,468.677,158.454,468.677"/>
		<path fill="#D39E5F" d="M497.72,425.183h-34.797c-4.801,0-8.698-3.889-8.698-8.699c0-4.811,3.897-8.699,8.698-8.699h34.797
			c4.801,0,8.698,3.888,8.698,8.699C506.418,421.294,502.521,425.183,497.72,425.183"/>
		<path fill="#D39E5F" d="M471.622,468.677h-34.796c-4.802,0-8.699-3.889-8.699-8.699c0-4.81,3.897-8.698,8.699-8.698h34.796
			c4.802,0,8.698,3.889,8.698,8.698C480.321,464.788,476.424,468.677,471.622,468.677"/>
	</g>
</g>
<g display="none">
	<path display="inline" fill="#898890" d="M98.219,433.372l-14.436,9.624v35.643H65.961L48.14,442.996l8.911-17.821L98.219,433.372z
		"/>
	<path display="inline" fill="#E0E0E2" d="M342.194,451.907H547.14v204.946H342.194V451.907z"/>
	<path display="inline" fill="#C6C5CA" d="M163.979,255.871l-35.643,222.768h142.572l-35.643-222.768H163.979z"/>
	<path display="inline" fill="#ACABB1" d="M244.176,451.907h98.018v98.018h-98.018V451.907z"/>
	<path display="inline" fill="#787680" d="M110.515,549.925h169.304v106.929H110.515V549.925z"/>
	<path display="inline" fill="#C0AB91" d="M413.479,585.567h62.375v71.286h-62.375V585.567z"/>
	<path display="inline" fill="#BDFDFF" d="M475.854,487.55h35.644v35.643h-35.644V487.55z"/>
	<path display="inline" fill="#BDFDFF" d="M377.836,487.55h35.643v35.643h-35.643V487.55z"/>
	<path display="inline" fill="#FFFFFF" d="M511.497,487.55h-35.644v35.643C475.854,503.509,491.814,487.55,511.497,487.55z"/>
	<path display="inline" fill="#FFFFFF" d="M413.479,487.55h-35.643v35.643C377.836,503.509,393.795,487.55,413.479,487.55z"/>
	<path display="inline" fill="#898890" d="M244.176,220.229l-8.911,35.643h-71.286l-8.911-35.643H244.176z"/>
	<path display="inline" fill="#3E3D42" d="M146.158,442.996l-17.822-8.91l9.981-7.484l25.662-19.248l43.305,34.664l-16.573,9.89
		l8.911,26.731h-53.464V442.996z"/>
	<path display="inline" fill="#ACABB1" d="M98.219,433.372l12.296-8.197l35.643,17.821v35.643H83.783v-35.643L98.219,433.372z"/>
	<path display="inline" fill="#B39A7C" d="M261.997,478.639l-4.277,36.179l-4.634-0.535H52.33l-4.19-35.644H261.997z"/>
	<path display="inline" fill="#898890" d="M279.819,549.925h62.375v106.929h-62.375V549.925z"/>
	<path display="inline" fill="#787680" d="M404.569,389.532v62.375H261.997l5.97-5.526l4.812-4.455l56.763-52.394H404.569z"/>
	<path display="inline" fill="#D8D7DA" d="M404.569,344.979v44.553h-75.027l48.295-44.553H404.569z"/>
	<path display="inline" fill="#ACABB1" d="M520.407,344.979h-35.643l-39.624,44.553h75.267V344.979z"/>
	<path display="inline" fill="#C6C5CA" d="M520.407,389.532v62.375H404.569v-16.751l40.542-45.625H520.407z"/>
	<g display="inline">
		<path fill="#E0E0E2" d="M431.301,612.3h17.821v17.821h-17.821V612.3z"/>
		<path fill="#E0E0E2" d="M217.444,157.854v-26.732h-17.822v17.822h-17.821c-4.921,0-8.911,3.99-8.911,8.911v44.553h17.821v-35.643
			h17.822C213.454,166.764,217.444,162.774,217.444,157.854z"/>
		<path fill="#E0E0E2" d="M235.265,175.675h-17.821c-4.921,0-8.911,3.99-8.911,8.911v17.821h17.821v-8.911h17.821
			c4.921,0,8.911-3.99,8.911-8.911v-17.821h-17.821V175.675z"/>
		<path fill="#E0E0E2" d="M235.265,131.121h17.821v17.822h-17.821V131.121z"/>
	</g>
	<path display="inline" fill="#ACABB1" d="M315.461,576.657h26.732v17.821h-26.732V576.657z"/>
	<path display="inline" fill="#ACABB1" d="M315.461,612.3h26.732v17.821h-26.732V612.3z"/>
	<path display="inline" fill="#D8D7DA" d="M181.801,255.871h17.821v26.732h-17.821V255.871z"/>
	<path display="inline" fill="#D8D7DA" d="M208.533,255.871h17.821v44.554h-17.821V255.871z"/>
	<path display="inline" fill="#57565C" d="M261.997,451.907v26.731h-62.375l-8.911-26.731l16.573-9.89l27.981-16.843
		L261.997,451.907z"/>
	<path display="inline" fill="#B39A7C" d="M261.997,478.639l-4.19,35.644H52.33l-4.19-35.644H261.997z"/>
	<path display="inline" fill="#D9CCBC" d="M257.807,514.282l-13.631,115.839H65.961L52.33,514.282H257.807z"/>
	<path display="inline" fill="#957856" d="M257.807,514.282H52.33l2.093,17.821h201.292L257.807,514.282z"/>
	<path display="inline" fill="#57565C" d="M128.336,630.121h115.839v8.911H128.336V630.121z"/>
	<path display="inline" fill="#ACABB1" d="M137.247,630.121c0,14.763-11.969,26.732-26.732,26.732s-26.732-11.97-26.732-26.732
		s11.969-26.732,26.732-26.732S137.247,615.358,137.247,630.121z"/>
	<path display="inline" fill="#ACABB1" d="M226.354,630.121c0,14.763-11.97,26.732-26.732,26.732s-26.732-11.97-26.732-26.732
		s11.969-26.732,26.732-26.732S226.354,615.358,226.354,630.121z"/>
	<path display="inline" fill="#787680" d="M119.426,630.121c0,4.921-3.99,8.911-8.911,8.911s-8.911-3.99-8.911-8.911
		s3.99-8.91,8.911-8.91S119.426,625.2,119.426,630.121z"/>
	<path display="inline" fill="#787680" d="M208.533,630.121c0,4.921-3.99,8.911-8.911,8.911s-8.911-3.99-8.911-8.911
		s3.99-8.91,8.911-8.91S208.533,625.2,208.533,630.121z"/>
</g>
<path display="none" fill="#C0AB91" d="M152,455.987h48c4.418,0,8,3.582,8,8s-3.582,8-8,8h-48c-4.418,0-8-3.582-8-8
	S147.582,455.987,152,455.987z"/>
</svg>
