<?xml version="1.0" encoding="utf-8"?>
<!-- Generator: Adobe Illustrator 16.0.0, SVG Export Plug-In . SVG Version: 6.00 Build 0)  -->
<!DOCTYPE svg PUBLIC "-//W3C//DTD SVG 1.1//EN" "http://www.w3.org/Graphics/SVG/1.1/DTD/svg11.dtd">
<svg version="1.1" id="Capa_1" xmlns="http://www.w3.org/2000/svg" xmlns:xlink="http://www.w3.org/1999/xlink" x="0px" y="0px"
	 width="595.279px" height="645px" viewBox="0 88.445 595.279 645" enable-background="new 0 88.445 595.279 645"
	 xml:space="preserve">
<path fill="#EBC9A0" d="M249.971,506.981H38.367c-3.21,0-5.813-2.603-5.813-5.813v-81.386c0-3.21,2.604-5.813,5.813-5.813h211.604
	c3.21,0,5.813,2.604,5.813,5.813v81.386C255.784,504.379,253.181,506.981,249.971,506.981z"/>
<path fill="#D7AF87" d="M249.971,434.896H38.367c-3.21,0-5.813-2.603-5.813-5.813v-81.386c0-3.21,2.604-5.813,5.813-5.813h211.604
	c3.21,0,5.813,2.604,5.813,5.813v81.386C255.784,432.294,253.181,434.896,249.971,434.896z"/>
<path fill="#C49D7A" d="M255.784,347.698v81.386c0,3.21-2.604,5.813-5.813,5.813H205.79c3.21,0,5.813-2.603,5.813-5.813v-81.386
	c0-3.21-2.604-5.813-5.813-5.813h44.181C253.181,341.884,255.784,344.488,255.784,347.698z"/>
<path fill="#EBC9A0" d="M249.971,365.138H38.367c-3.21,0-5.813-2.604-5.813-5.813v-81.386c0-3.21,2.604-5.813,5.813-5.813h211.604
	c3.21,0,5.813,2.603,5.813,5.813v81.386C255.784,362.534,253.181,365.138,249.971,365.138z"/>
<path fill="#D7AF87" d="M255.784,277.938v81.386c0,3.21-2.604,5.813-5.813,5.813h-38.367v-5.813v-49.026v-32.36
	c0-3.21-2.604-5.813-5.813-5.813h44.181C253.181,272.125,255.784,274.728,255.784,277.938z"/>
<path fill="#AFB9D2" d="M523.196,129.118v69.759c0,3.21-2.604,5.813-5.813,5.813H396.466c-3.21,0-5.813-2.603-5.813-5.813v-69.759
	c0-3.21,2.604-5.813,5.813-5.813h120.916C520.592,123.305,523.196,125.908,523.196,129.118z"/>
<path fill="#959CB5" d="M523.196,129.118v69.759c0,3.21-2.604,5.813-5.813,5.813h-41.855c3.21,0,5.813-2.603,5.813-5.813v-69.759
	c0-3.21-2.604-5.813-5.813-5.813h41.855C520.592,123.305,523.196,125.908,523.196,129.118z"/>
<path fill="#D7AF87" d="M249.971,295.378H38.367c-3.21,0-5.813-2.603-5.813-5.813v-81.386c0-3.21,2.604-5.813,5.813-5.813h211.604
	c3.21,0,5.813,2.603,5.813,5.813v81.386C255.784,292.775,253.181,295.378,249.971,295.378z"/>
<path fill="#C49D7A" d="M255.784,208.179v87.199h-44.181v-5.813v-39.821v-41.565c0-3.21-2.604-5.813-5.813-5.813h44.181
	C253.181,202.366,255.784,204.969,255.784,208.179z"/>
<path fill="#D7AF87" d="M560.401,198.877v302.291c0,3.211-2.604,5.813-5.813,5.813h-34.88c-3.21,0-5.813-2.603-5.813-5.813V198.877
	c0-3.21,2.604-5.813,5.813-5.813h34.88C557.797,193.064,560.401,195.667,560.401,198.877z"/>
<path fill="#EBC9A0" d="M589.467,225.619H5.814c-3.211,0-5.813-2.603-5.813-5.813v-34.88c0-3.21,2.603-5.813,5.813-5.813h583.653
	c3.21,0,5.813,2.604,5.813,5.813v34.88C595.28,223.016,592.677,225.619,589.467,225.619z"/>
<path fill="#D7AF87" d="M595.28,184.926v34.88c0,3.21-2.603,5.813-5.813,5.813h-34.88c3.21,0,5.813-2.603,5.813-5.813v-34.88
	c0-3.21-2.604-5.813-5.813-5.813h34.88C592.677,179.112,595.28,181.716,595.28,184.926z"/>
<path fill="#57676E" d="M170.606,472.102c0,4.816-3.904,8.721-8.72,8.721h-35.435c-4.815,0-8.72-3.904-8.72-8.721
	c0-4.815,3.904-8.72,8.72-8.72h35.435C166.701,463.382,170.606,467.286,170.606,472.102z M161.886,391.297h-35.435
	c-4.815,0-8.72,3.904-8.72,8.72c0,4.815,3.904,8.72,8.72,8.72h35.435c4.815,0,8.72-3.904,8.72-8.72
	C170.606,395.202,166.701,391.297,161.886,391.297z M161.886,321.538h-35.435c-4.815,0-8.72,3.904-8.72,8.72
	c0,4.816,3.904,8.72,8.72,8.72h35.435c4.815,0,8.72-3.904,8.72-8.72C170.606,325.442,166.701,321.538,161.886,321.538z
	 M126.452,269.218h35.435c4.816,0,8.72-3.904,8.72-8.72c0-4.816-3.903-8.72-8.72-8.72h-35.435c-4.815,0-8.72,3.904-8.72,8.72
	C117.733,265.314,121.637,269.218,126.452,269.218z"/>
<path fill="#EBC9A0" d="M308.224,486.364L245.86,714.896c-0.594,2.179-2.572,3.688-4.83,3.688h-23.651
	c-3.164,0-5.535-2.899-4.907-6.001l46.271-228.532c0.473-2.336,2.525-4.014,4.907-4.014h39.745
	C306.695,480.038,309.092,483.179,308.224,486.364z M429.317,712.584l-46.271-228.532c-0.473-2.336-2.525-4.014-4.907-4.014h-39.745
	c-3.303,0-5.701,3.141-4.831,6.326l62.363,228.532c0.595,2.179,2.573,3.688,4.831,3.688h23.65
	C427.573,718.585,429.945,715.686,429.317,712.584z"/>
<path fill="#FFB446" d="M275.1,440.687v112.802h-63.814c-19.265,0-34.88-15.616-34.88-34.88v-77.922
	c0-19.264,15.615-34.879,34.88-34.879h28.935C259.483,405.808,275.1,421.424,275.1,440.687z M430.501,405.808h-24.735
	c-19.264,0-34.88,15.615-34.88,34.879v112.802h59.615c19.263,0,34.88-15.616,34.88-34.88v-77.922
	C465.381,421.424,449.766,405.808,430.501,405.808z"/>
<path fill="#FFDC64" d="M405.729,553.488H236.058c-2.319,0-4.199-1.881-4.199-4.2V384.083c0-49.172,39.862-89.035,89.034-89.035l0,0
	c49.173,0,89.035,39.863,89.035,89.035v165.205C409.928,551.607,408.048,553.488,405.729,553.488z"/>
<path fill="#FFF082" d="M231.859,518.945V384.083c0-49.172,39.862-89.035,89.034-89.035l0,0c1.566,0,3.123,0.043,4.67,0.122
	c29.507,14.502,49.821,44.844,49.821,79.942v74.074c0,38.527-31.232,69.76-69.759,69.76H231.859z"/>
</svg>
