<svg id="Capa_1" enable-background="new 0 0 512 512" height="512" viewBox="0 0 512 512" width="512" xmlns="http://www.w3.org/2000/svg"><g><g><path d="m0 83.147v14.82c0 4.196 2.618 7.853 6.483 9.487 5.977 2.527 10.168 8.443 10.168 15.342s-4.191 12.816-10.168 15.342c-3.865 1.635-6.483 5.292-6.483 9.488v14.82c0 5.69 4.612 10.302 10.302 10.302h491.396c5.69 0 10.302-4.612 10.302-10.302v-79.299c0-5.69-4.612-10.302-10.302-10.302h-491.396c-5.69.001-10.302 4.613-10.302 10.302zm124.17 51.43c-3.018 3.007-7.18 4.87-11.78 4.87h-29.138c-9.199 0-16.65-7.451-16.65-16.65s7.451-16.65 16.65-16.65h29.138c9.199 0 16.65 7.451 16.65 16.65.001 4.599-1.862 8.762-4.87 11.78zm337.879 4.87c-9.199 0-16.65-7.451-16.65-16.65s7.451-16.65 16.65-16.65 16.65 7.451 16.65 16.65-7.451 16.65-16.65 16.65z" fill="#d0e2e7"/><path d="m493.268 72.846v60.358c0 11.495-9.318 20.813-20.813 20.813h-472.455v8.43c0 5.69 4.612 10.302 10.302 10.302h491.396c5.69 0 10.302-4.612 10.302-10.302v-79.3c0-5.69-4.612-10.302-10.302-10.302h-8.43z" fill="#b4d0d5"/><path d="m162.341 131.122v-16.65c0-4.598 3.727-8.325 8.325-8.325h233.106c4.598 0 8.325 3.727 8.325 8.325v16.65c0 4.598-3.727 8.325-8.325 8.325h-233.105c-4.598 0-8.326-3.727-8.326-8.325z" fill="#365e7d"/></g><g><path d="m0 349.554v14.82c0 4.196 2.618 7.853 6.483 9.487 5.977 2.527 10.168 8.443 10.168 15.342s-4.191 12.816-10.168 15.342c-3.865 1.635-6.483 5.292-6.483 9.487v14.82c0 5.69 4.612 10.302 10.302 10.302h491.396c5.69 0 10.302-4.612 10.302-10.302v-79.299c0-5.69-4.612-10.302-10.302-10.302h-491.396c-5.69.001-10.302 4.613-10.302 10.303zm124.17 51.429c-3.018 3.008-7.18 4.87-11.78 4.87h-29.138c-9.199 0-16.65-7.451-16.65-16.65s7.451-16.65 16.65-16.65h29.138c9.199 0 16.65 7.451 16.65 16.65.001 4.6-1.862 8.762-4.87 11.78zm337.879 4.871c-9.199 0-16.65-7.451-16.65-16.65s7.451-16.65 16.65-16.65 16.65 7.451 16.65 16.65-7.451 16.65-16.65 16.65z" fill="#d0e2e7"/><path d="m493.268 339.252v60.358c0 11.495-9.318 20.813-20.813 20.813h-472.455v8.43c0 5.69 4.612 10.302 10.302 10.302h491.396c5.69 0 10.302-4.612 10.302-10.302v-79.299c0-5.69-4.612-10.302-10.302-10.302z" fill="#b4d0d5"/><path d="m162.341 397.528v-16.65c0-4.598 3.727-8.325 8.325-8.325h233.106c4.598 0 8.325 3.727 8.325 8.325v16.65c0 4.598-3.727 8.325-8.325 8.325h-233.105c-4.598.001-8.326-3.727-8.326-8.325z" fill="#365e7d"/></g><g><path d="m0 216.351v79.299c0 5.69 4.612 10.302 10.302 10.302h491.396c5.69 0 10.302-4.612 10.302-10.302v-14.82c0-4.196-2.618-7.853-6.483-9.487-5.977-2.527-10.168-8.443-10.168-15.342s4.191-12.816 10.168-15.342c3.865-1.634 6.483-5.291 6.483-9.487v-14.82c0-5.69-4.612-10.302-10.302-10.302h-491.396c-5.69-.001-10.302 4.611-10.302 10.301zm382.959 39.649c0-9.199 7.451-16.65 16.65-16.65h29.138c9.199 0 16.65 7.451 16.65 16.65s-7.451 16.65-16.65 16.65h-29.137c-4.6 0-8.762-1.863-11.78-4.87-3.008-3.018-4.871-7.18-4.871-11.78zm-349.658 0c0-9.199 7.451-16.65 16.65-16.65s16.65 7.451 16.65 16.65-7.451 16.65-16.65 16.65-16.65-7.451-16.65-16.65z" fill="#ffe07d"/><path d="m512 231.171v-14.82c0-5.69-4.612-10.302-10.302-10.302h-8.43v19.945c-9.991 6.261-16.65 17.371-16.65 30.007s6.659 23.746 16.65 30.007v1.213h-493.268v8.43c0 5.69 4.612 10.302 10.302 10.302h491.396c5.69 0 10.302-4.612 10.302-10.302v-14.82c0-4.196-2.618-7.853-6.483-9.487-5.977-2.527-10.168-8.443-10.168-15.342s4.191-12.816 10.168-15.342c3.865-1.636 6.483-5.293 6.483-9.489z" fill="#ffd064"/><path d="m349.659 264.325v-16.65c0-4.598-3.727-8.325-8.325-8.325h-233.106c-4.598 0-8.325 3.727-8.325 8.325v16.65c0 4.598 3.727 8.325 8.325 8.325h233.106c4.597 0 8.325-3.727 8.325-8.325z" fill="#365e7d"/></g></g></svg>