<?xml version="1.0" encoding="utf-8"?>
<!-- Generator: Adobe Illustrator 16.0.0, SVG Export Plug-In . SVG Version: 6.00 Build 0)  -->
<!DOCTYPE svg PUBLIC "-//W3C//DTD SVG 1.1//EN" "http://www.w3.org/Graphics/SVG/1.1/DTD/svg11.dtd">
<svg version="1.1" id="Capa_1" xmlns="http://www.w3.org/2000/svg" xmlns:xlink="http://www.w3.org/1999/xlink" x="0px" y="0px"
	 width="595.279px" height="645px" viewBox="0 88.445 595.279 645" enable-background="new 0 88.445 595.279 645"
	 xml:space="preserve">
<path display="none" fill="#EBC9A0" d="M249.971,506.981H38.367c-3.21,0-5.813-2.603-5.813-5.813v-81.386
	c0-3.21,2.604-5.813,5.813-5.813h211.604c3.21,0,5.813,2.604,5.813,5.813v81.386C255.784,504.379,253.181,506.981,249.971,506.981z"
	/>
<path display="none" fill="#D7AF87" d="M249.971,434.896H38.367c-3.21,0-5.813-2.603-5.813-5.813v-81.386
	c0-3.21,2.604-5.813,5.813-5.813h211.604c3.21,0,5.813,2.604,5.813,5.813v81.386C255.784,432.294,253.181,434.896,249.971,434.896z"
	/>
<path display="none" fill="#C49D7A" d="M255.784,347.698v81.386c0,3.21-2.604,5.813-5.813,5.813H205.79
	c3.21,0,5.813-2.603,5.813-5.813v-81.386c0-3.21-2.604-5.813-5.813-5.813h44.181C253.181,341.884,255.784,344.488,255.784,347.698z"
	/>
<path display="none" fill="#EBC9A0" d="M249.971,365.138H38.367c-3.21,0-5.813-2.604-5.813-5.813v-81.386
	c0-3.21,2.604-5.813,5.813-5.813h211.604c3.21,0,5.813,2.603,5.813,5.813v81.386C255.784,362.534,253.181,365.138,249.971,365.138z"
	/>
<path display="none" fill="#D7AF87" d="M255.784,277.938v81.386c0,3.21-2.604,5.813-5.813,5.813h-38.367v-5.813v-49.026v-32.36
	c0-3.21-2.604-5.813-5.813-5.813h44.181C253.181,272.125,255.784,274.728,255.784,277.938z"/>
<path display="none" fill="#AFB9D2" d="M523.196,129.118v69.759c0,3.21-2.604,5.813-5.813,5.813H396.466
	c-3.21,0-5.813-2.603-5.813-5.813v-69.759c0-3.21,2.604-5.813,5.813-5.813h120.916C520.592,123.305,523.196,125.908,523.196,129.118
	z"/>
<path display="none" fill="#959CB5" d="M523.196,129.118v69.759c0,3.21-2.604,5.813-5.813,5.813h-41.855
	c3.21,0,5.813-2.603,5.813-5.813v-69.759c0-3.21-2.604-5.813-5.813-5.813h41.855C520.592,123.305,523.196,125.908,523.196,129.118z"
	/>
<path display="none" fill="#D7AF87" d="M249.971,295.378H38.367c-3.21,0-5.813-2.603-5.813-5.813v-81.386
	c0-3.21,2.604-5.813,5.813-5.813h211.604c3.21,0,5.813,2.603,5.813,5.813v81.386C255.784,292.775,253.181,295.378,249.971,295.378z"
	/>
<path display="none" fill="#C49D7A" d="M255.784,208.179v87.199h-44.181v-5.813v-39.821v-41.565c0-3.21-2.604-5.813-5.813-5.813
	h44.181C253.181,202.366,255.784,204.969,255.784,208.179z"/>
<path display="none" fill="#D7AF87" d="M560.401,198.877v302.291c0,3.211-2.604,5.813-5.813,5.813h-34.88
	c-3.21,0-5.813-2.603-5.813-5.813V198.877c0-3.21,2.604-5.813,5.813-5.813h34.88C557.797,193.064,560.401,195.667,560.401,198.877z"
	/>
<path display="none" fill="#EBC9A0" d="M589.467,225.619H5.814c-3.211,0-5.813-2.603-5.813-5.813v-34.88
	c0-3.21,2.603-5.813,5.813-5.813h583.653c3.21,0,5.813,2.604,5.813,5.813v34.88C595.28,223.016,592.677,225.619,589.467,225.619z"/>
<path display="none" fill="#D7AF87" d="M595.28,184.926v34.88c0,3.21-2.603,5.813-5.813,5.813h-34.88
	c3.21,0,5.813-2.603,5.813-5.813v-34.88c0-3.21-2.604-5.813-5.813-5.813h34.88C592.677,179.112,595.28,181.716,595.28,184.926z"/>
<path display="none" fill="#57676E" d="M170.606,472.102c0,4.816-3.904,8.721-8.72,8.721h-35.435c-4.815,0-8.72-3.904-8.72-8.721
	c0-4.815,3.904-8.72,8.72-8.72h35.435C166.701,463.382,170.606,467.286,170.606,472.102z M161.886,391.297h-35.435
	c-4.815,0-8.72,3.904-8.72,8.72c0,4.815,3.904,8.72,8.72,8.72h35.435c4.815,0,8.72-3.904,8.72-8.72
	C170.606,395.202,166.701,391.297,161.886,391.297z M161.886,321.538h-35.435c-4.815,0-8.72,3.904-8.72,8.72
	c0,4.816,3.904,8.72,8.72,8.72h35.435c4.815,0,8.72-3.904,8.72-8.72C170.606,325.442,166.701,321.538,161.886,321.538z
	 M126.452,269.218h35.435c4.816,0,8.72-3.904,8.72-8.72c0-4.816-3.903-8.72-8.72-8.72h-35.435c-4.815,0-8.72,3.904-8.72,8.72
	C117.733,265.314,121.637,269.218,126.452,269.218z"/>
<path display="none" fill="#EBC9A0" d="M308.224,486.364L245.86,714.896c-0.594,2.179-2.572,3.688-4.83,3.688h-23.651
	c-3.164,0-5.535-2.899-4.907-6.001l46.271-228.532c0.473-2.336,2.525-4.014,4.907-4.014h39.745
	C306.695,480.038,309.092,483.179,308.224,486.364z M429.317,712.584l-46.271-228.532c-0.473-2.336-2.525-4.014-4.907-4.014h-39.745
	c-3.303,0-5.701,3.141-4.831,6.326l62.363,228.532c0.595,2.179,2.573,3.688,4.831,3.688h23.65
	C427.573,718.585,429.945,715.686,429.317,712.584z"/>
<path display="none" fill="#FFB446" d="M275.1,440.687v112.802h-63.814c-19.265,0-34.88-15.616-34.88-34.88v-77.922
	c0-19.264,15.615-34.879,34.88-34.879h28.935C259.483,405.808,275.1,421.424,275.1,440.687z M430.501,405.808h-24.735
	c-19.264,0-34.88,15.615-34.88,34.879v112.802h59.615c19.263,0,34.88-15.616,34.88-34.88v-77.922
	C465.381,421.424,449.766,405.808,430.501,405.808z"/>
<path display="none" fill="#FFDC64" d="M405.729,553.488H236.058c-2.319,0-4.199-1.881-4.199-4.2V384.083
	c0-49.172,39.862-89.035,89.034-89.035l0,0c49.173,0,89.035,39.863,89.035,89.035v165.205
	C409.928,551.607,408.048,553.488,405.729,553.488z"/>
<path display="none" fill="#FFF082" d="M231.859,518.945V384.083c0-49.172,39.862-89.035,89.034-89.035l0,0
	c1.566,0,3.123,0.043,4.67,0.122c29.507,14.502,49.821,44.844,49.821,79.942v74.074c0,38.527-31.232,69.76-69.759,69.76H231.859z"/>
<image display="none" overflow="visible" width="214" height="167" xlink:href="fbec.png"  transform="matrix(2.7175 0 0 2.7175 6.8665 177.5078)">
</image>
<g display="none">
	<path display="inline" fill="#7F8C8D" d="M558.616,368.426v17.998l-233.979,242.98H180.651V413.422h143.988l116.987-116.99
		l-4.499,22.498c-0.007,13.129,5.205,25.723,14.487,35.007c9.283,9.284,21.878,14.497,35.007,14.488L558.616,368.426
		L558.616,368.426z"/>
	<polygon display="inline" fill="#D1D4D1" points="558.616,368.426 558.616,422.421 504.62,476.415 324.638,665.398 
		306.639,665.398 306.639,611.402 324.638,611.402 504.62,422.421 	"/>
	<polygon display="inline" fill="#ECF0F1" points="558.616,143.445 558.616,170.443 324.638,395.422 36.664,395.422 36.664,377.424 
		270.643,143.445 	"/>
	<polygon display="inline" fill="#7F8C8D" points="153.653,494.414 162.652,494.414 162.652,620.402 36.664,620.402 36.664,611.402 
			"/>
	<polygon display="inline" fill="#D1D4D1" points="558.616,143.445 558.616,197.441 324.638,431.42 315.638,431.42 315.638,377.424 
		324.638,377.424 	"/>
	<path display="inline" fill="#C5CCD4" d="M207.648,480.914v80.993c-0.007,13.13,5.205,25.722,14.489,35.007
		c9.284,9.284,21.877,14.495,35.006,14.488h67.493v53.996H36.664v-53.996h67.494c13.129,0.007,25.722-5.204,35.007-14.488
		c9.284-9.283,14.497-21.877,14.488-35.006v-80.992c0.007-13.13-5.205-25.725-14.488-35.006
		c-9.285-9.286-21.878-14.497-35.007-14.488H36.664v-53.997h287.974v53.997h-67.495c-13.129-0.009-25.723,5.204-35.006,14.488
		C212.853,455.191,207.641,467.786,207.648,480.914z"/>
	<g display="inline">
		<path fill="#95A5A5" d="M252.644,574.955c-2.393,0.021-4.697-0.918-6.389-2.61s-2.633-3.995-2.61-6.39c0-4.97,4.029-8.999,9-8.999
			c4.97,0,9,4.027,9,8.999c0.023,2.395-0.918,4.697-2.61,6.39C257.341,574.037,255.038,574.977,252.644,574.955L252.644,574.955z"/>
		<path fill="#95A5A5" d="M279.642,546.694c-3.602,0.002-6.858-2.146-8.275-5.458c-1.418-3.311-0.724-7.148,1.763-9.755l9-9.429
			c2.219-2.327,5.512-3.292,8.636-2.534c3.125,0.76,5.607,3.128,6.513,6.214c0.905,3.087,0.094,6.419-2.125,8.746l-8.999,9.432
			C284.457,545.692,282.103,546.699,279.642,546.694L279.642,546.694z"/>
		<path fill="#95A5A5" d="M315.638,508.984c-3.602,0.002-6.858-2.146-8.274-5.458c-1.419-3.311-0.725-7.148,1.763-9.755l8.999-9.429
			c3.432-3.597,9.13-3.73,12.726-0.3c3.597,3.432,3.73,9.13,0.299,12.726l-8.999,9.431
			C320.454,507.98,318.099,508.987,315.638,508.984L315.638,508.984z"/>
		<path fill="#95A5A5" d="M351.635,471.274c-3.602,0.002-6.857-2.146-8.274-5.458c-1.418-3.311-0.724-7.148,1.763-9.755l8.999-9.429
			c3.433-3.597,9.13-3.73,12.727-0.3c3.596,3.432,3.729,9.129,0.299,12.726l-9,9.431
			C356.45,470.271,354.095,471.277,351.635,471.274z"/>
		<path fill="#95A5A5" d="M387.632,433.564c-3.602,0-6.857-2.146-8.275-5.458c-1.418-3.313-0.724-7.15,1.764-9.756l8.999-9.43
			c3.431-3.597,9.129-3.73,12.726-0.299c3.597,3.431,3.73,9.129,0.299,12.727l-9,9.429
			C392.447,432.561,390.093,433.567,387.632,433.564L387.632,433.564z"/>
		<path fill="#95A5A5" d="M423.629,395.871c-2.405-0.007-4.706-0.98-6.391-2.698c-1.707-1.647-2.652-3.931-2.61-6.301
			c-0.021-3.656,2.172-6.962,5.548-8.364c3.377-1.402,7.267-0.622,9.841,1.975c1.656,1.716,2.592,4.003,2.61,6.389
			c0.039,2.372-0.906,4.653-2.61,6.301C428.335,394.89,426.033,395.863,423.629,395.871L423.629,395.871z"/>
	</g>
</g>
<g display="none">
	<path display="inline" fill="#FEBF01" d="M582.355,337.802v-73.173l-73.144-36.571h-9.421v109.744H582.355z"/>
	<path display="inline" fill="#03995A" d="M533.032,563.659h-0.318c-13.203,0-25.607-5.148-34.93-14.5
		c-9.322-9.351-14.435-21.771-14.394-34.976c0.017-5.172-1.985-10.038-5.639-13.701c-3.651-3.663-8.512-5.682-13.685-5.682h-56.613
		v-30h56.614c13.204,0,25.608,5.149,34.931,14.5c9.322,9.352,14.434,21.772,14.393,34.976c-0.016,5.172,1.986,10.039,5.64,13.702
		c3.65,3.662,8.512,5.681,13.684,5.681h0.318c10.653,0,19.321-8.668,19.321-19.323v-69.068c0-10.655-8.668-19.323-19.321-19.323
		h-0.212c-27.197,0-49.323-22.126-49.323-49.323V195.104l77.149-38.575l13.416,26.833l-60.565,30.283v162.978
		c0,10.655,8.668,19.323,19.323,19.323h0.212c27.194,0,49.321,22.126,49.321,49.323v69.069
		C582.355,541.533,560.228,563.659,533.032,563.659z"/>
	<path display="inline" fill="#F8FA00" d="M436.065,191.515v422.291H106.924V191.515c0-20.2,16.381-36.57,36.57-36.57h256
		C419.695,154.945,436.065,171.315,436.065,191.515z"/>
	<path display="inline" fill="#FEBF01" d="M436.065,191.515v422.291h-164.57v-458.86h128
		C419.695,154.945,436.065,171.315,436.065,191.515z"/>
	<path display="inline" fill="#56C125" d="M70.355,593.806h402.289v73.14H70.355V593.806z"/>
	<path display="inline" fill="#03995A" d="M271.494,593.806h201.149v73.14H271.494V593.806z"/>
	<path display="inline" fill="#ABE233" d="M372.605,456.295c0,0-6.13,4.43-15.42,11.141c-17.36,12.54-45.771,33.06-65.86,47.56
		c-6.27,4.53-12.96,7.97-19.83,10.32c-22.36,7.64-46.58,3.7-64.31-11.96c-3.601-3.17-6.92-6.82-9.91-10.96
		c-3.22-4.46-5.811-9.17-7.78-14c-11.66-28.591-1.74-61.83,27.11-76.841c19.569-10.179,38.01-13.81,54.89-13.25
		c36.11,1.18,65.05,21.5,82.57,37.76C365.975,447.115,372.605,456.295,372.605,456.295L372.605,456.295z"/>
	<path display="inline" fill="#56C125" d="M372.605,456.295c0,0-6.13,4.43-15.42,11.141c-17.36,12.54-45.771,33.06-65.86,47.56
		c-6.27,4.53-12.96,7.97-19.83,10.32v-127.01c36.11,1.18,65.05,21.5,82.57,37.76C365.975,447.115,372.605,456.295,372.605,456.295
		L372.605,456.295z"/>
	<path display="inline" fill="#56C125" d="M372.605,456.295c0,0-6.13,4.43-15.42,11.141c-28.471-7.12-58.29-5.721-85.69,3.609
		c-14.01,4.771-27.38,11.61-39.62,20.45c-9.46,6.83-17.67,14.08-24.689,21.86c-22.41,24.85-32.67,55.13-32.67,100.45h-30
		c0-39.24,6.609-67.521,20.199-92.23c6.591-11.979,14.79-22.979,24.78-33.18c7.29-7.47,15.54-14.521,24.82-21.22
		c17.3-12.5,36.75-21.851,57.18-27.59c7.46-2.11,15.061-3.73,22.72-4.841c19.811-2.88,40.141-2.409,59.851,1.32
		C365.975,447.115,372.605,456.295,372.605,456.295L372.605,456.295z"/>
	<path display="inline" fill="#03995A" d="M372.605,456.295c0,0-6.13,4.43-15.42,11.141c-28.471-7.12-58.29-5.721-85.69,3.609
		v-31.459c7.46-2.11,15.061-3.73,22.72-4.841c19.811-2.88,40.141-2.409,59.851,1.32
		C365.975,447.115,372.605,456.295,372.605,456.295L372.605,456.295z"/>
	<path display="inline" fill="#EEF6FF" d="M175.895,228.055h187.029v94.42H175.895V228.055z"/>
	<path display="inline" fill="#C0DEFE" d="M271.494,228.055h91.43v94.42h-91.43V228.055z"/>
	<path display="inline" fill="#56C125" d="M160.895,213.055v124.42h217.029v-124.42H160.895z M347.924,307.476H190.895v-64.42
		h157.029V307.476z"/>
	<path display="inline" fill="#03995A" d="M377.924,213.055v124.42h-106.43v-30h76.43v-64.42h-76.43v-30H377.924z"/>
</g>
<g transform="translate(0 -1)">
	<g>
		<path fill="#BDC3C7" d="M88.861,346.89c-4.801,0-8.699-3.888-8.699-8.699v-52.194c0-4.811,3.897-8.699,8.699-8.699
			c4.802,0,8.7,3.888,8.7,8.699v52.194C97.561,343,93.663,346.89,88.861,346.89"/>
		<path fill="#BDC3C7" d="M297.64,346.89c-4.801,0-8.699-3.888-8.699-8.699v-52.194c0-4.811,3.897-8.699,8.699-8.699
			c4.802,0,8.698,3.888,8.698,8.699v52.194C306.338,343,302.442,346.89,297.64,346.89"/>
		<path fill="#BDC3C7" d="M349.835,346.89c-4.803,0-8.699-3.888-8.699-8.699v-52.194c0-4.811,3.896-8.699,8.699-8.699
			c4.801,0,8.698,3.888,8.698,8.699v52.194C358.533,343,354.636,346.89,349.835,346.89"/>
		<path fill="#BDC3C7" d="M402.029,346.89c-4.801,0-8.698-3.888-8.698-8.699v-52.194c0-4.811,3.897-8.699,8.698-8.699
			c4.802,0,8.699,3.888,8.699,8.699v52.194C410.728,343,406.83,346.89,402.029,346.89"/>
		<path fill="#BDC3C7" d="M454.224,346.89c-4.801,0-8.699-3.888-8.699-8.699v-52.194c0-4.811,3.898-8.699,8.699-8.699
			c4.802,0,8.698,3.888,8.698,8.699v52.194C462.922,343,459.026,346.89,454.224,346.89"/>
		<path fill="#BDC3C7" d="M506.418,346.89c-4.802,0-8.698-3.888-8.698-8.699v-52.194c0-4.811,3.896-8.699,8.698-8.699
			s8.699,3.888,8.699,8.699v52.194C515.117,343,511.22,346.89,506.418,346.89"/>
		<path fill="#BDC3C7" d="M193.251,346.89c-4.802,0-8.699-3.888-8.699-8.699v-52.194c0-4.811,3.897-8.699,8.699-8.699
			c4.801,0,8.699,3.888,8.699,8.699v52.194C201.949,343,198.052,346.89,193.251,346.89"/>
		<path fill="#BDC3C7" d="M141.056,346.89c-4.801,0-8.699-3.888-8.699-8.699v-52.194c0-4.811,3.897-8.699,8.699-8.699
			c4.802,0,8.699,3.888,8.699,8.699v52.194C149.755,343,145.858,346.89,141.056,346.89"/>
		<path fill="#BDC3C7" d="M245.446,346.89c-4.802,0-8.699-3.888-8.699-8.699v-52.194c0-4.811,3.897-8.699,8.699-8.699
			c4.801,0,8.699,3.888,8.699,8.699v52.194C254.144,343,250.247,346.89,245.446,346.89"/>
		<path fill="#BDC3C7" d="M549.914,294.695H45.365c-4.802,0-8.699-3.888-8.699-8.699c0-4.811,3.897-8.699,8.699-8.699h504.548
			c4.802,0,8.698,3.888,8.698,8.699C558.612,290.807,554.716,294.695,549.914,294.695"/>
	</g>
	<polygon fill="#D39E5F" points="45.365,372.984 549.914,372.984 549.914,338.188 45.365,338.188 	"/>
	<path fill="#FAC176" d="M149.754,590.465H62.763V372.987h469.752v217.478h-86.99c0-81.736-66.141-147.885-147.886-147.885
		C215.902,442.58,149.754,508.729,149.754,590.465"/>
	<g>
		<path fill="#D39E5F" d="M132.357,425.183H97.561c-4.802,0-8.7-3.889-8.7-8.699c0-4.811,3.897-8.699,8.7-8.699h34.795
			c4.801,0,8.699,3.888,8.699,8.699C141.055,421.294,137.159,425.183,132.357,425.183"/>
		<path fill="#D39E5F" d="M158.454,468.677h-34.797c-4.802,0-8.699-3.889-8.699-8.699c0-4.81,3.897-8.698,8.699-8.698h34.796
			c4.802,0,8.699,3.889,8.699,8.698C167.153,464.788,163.256,468.677,158.454,468.677"/>
		<path fill="#D39E5F" d="M497.72,425.183h-34.797c-4.801,0-8.698-3.889-8.698-8.699c0-4.811,3.897-8.699,8.698-8.699h34.797
			c4.801,0,8.698,3.888,8.698,8.699C506.418,421.294,502.521,425.183,497.72,425.183"/>
		<path fill="#D39E5F" d="M471.622,468.677h-34.796c-4.802,0-8.699-3.889-8.699-8.699c0-4.81,3.897-8.698,8.699-8.698h34.796
			c4.802,0,8.698,3.889,8.698,8.698C480.321,464.788,476.424,468.677,471.622,468.677"/>
	</g>
</g>
</svg>
